<svg width="24" height="25" viewBox="0 0 24 25" fill="none" xmlns="http://www.w3.org/2000/svg">
<path fill-rule="evenodd" clip-rule="evenodd" d="M8 7C8 4.7908 9.79086 3 12 3C14.209 3 16 4.79086 16 7C16 9.20914 14.2091 11 12 11C9.7908 11 8 9.20914 8 7ZM14.501 11.3304C15.9949 10.4657 17 8.8502 17 7C17 4.2386 14.7614 2 12 2C9.2386 2 7 4.2386 7 7C7 8.85024 8.005 10.4658 9.499 11.3304C5.1734 12.4984 2 16.6254 2 21.5C2 21.7761 2.22382 22 2.5 22C2.77618 22 3 21.7761 3 21.5C3 16.2288 7.0532 12 12 12C16.9468 12 21 16.2288 21 21.5C21 21.7761 21.2239 22 21.5 22C21.7761 22 22 21.7761 22 21.5C22 16.6254 18.8268 12.4986 14.501 11.3304Z" fill="#454049" stroke="#454049" stroke-width="0.5"/>
</svg>
