<svg width="57" height="11" viewBox="0 0 57 11" fill="none" xmlns="http://www.w3.org/2000/svg">
<path d="M55.7238 2.17943L54.0318 1.21117L52.3153 0.228234C51.1808 -0.422164 49.7626 0.3945 49.7626 1.70508V1.92514C49.7626 2.04739 49.8262 2.15987 49.9338 2.21855L50.7309 2.67334C50.9509 2.80048 51.2248 2.63911 51.2248 2.38482V1.86156C51.2248 1.60238 51.5035 1.44101 51.7285 1.56815L53.2933 2.46795L54.8533 3.36286C55.0783 3.49 55.0783 3.81765 54.8533 3.94479L53.2933 4.8397L51.7285 5.7395C51.5035 5.86664 51.2248 5.70527 51.2248 5.44608V5.1869C51.2248 3.87633 49.8066 3.05477 48.6721 3.71006L46.9556 4.69299L45.2636 5.66125C44.1242 6.31654 44.1242 7.96454 45.2636 8.61983L46.9556 9.58809L48.6721 10.571C49.8066 11.2214 51.2248 10.4048 51.2248 9.09418V8.87412C51.2248 8.75187 51.1612 8.63939 51.0536 8.58071L50.2565 8.12592C50.0365 7.99877 49.7626 8.16015 49.7626 8.41444V8.93769C49.7626 9.19687 49.4839 9.35825 49.2589 9.23111L47.6941 8.33131L46.1341 7.4364C45.9091 7.30925 45.9091 6.98161 46.1341 6.85447L47.6941 5.95956L49.2589 5.05976C49.4839 4.93261 49.7626 5.09399 49.7626 5.35317V5.61235C49.7626 6.92293 51.1808 7.74448 52.3153 7.08919L54.0318 6.10626L55.7238 5.138C56.8632 4.47782 56.8632 2.83471 55.7238 2.17943Z" fill="#1F1F1F"/>
<path d="M44.623 2.5022L40.662 10.6835H39.0189L40.5006 7.62713L38.168 2.5022H39.8551L41.3515 5.93512L42.9848 2.5022H44.623Z" fill="#1F1F1F"/>
<path d="M5.01724 5.40698C5.01724 4.42894 4.30816 3.74431 3.4377 3.74431C2.56725 3.74431 1.85817 4.44361 1.85817 5.40698C1.85817 6.36057 2.56725 7.06965 3.4377 7.06965C4.30816 7.06965 5.01724 6.38502 5.01724 5.40698ZM5.03191 8.31177V7.55867C4.60157 8.08193 3.96096 8.40468 3.19808 8.40468C1.60388 8.40468 0.395996 7.12834 0.395996 5.40698C0.395996 3.7003 1.65278 2.39951 3.23232 2.39951C3.97563 2.39951 4.60157 2.72715 5.03191 3.23573V2.5022H6.45985V8.31177H5.03191Z" fill="#1F1F1F"/>
<path d="M13.4039 7.02074C12.9051 7.02074 12.7633 6.83491 12.7633 6.34589V3.76875H13.6827V2.50219H12.7633V1.08403H11.3012V2.50219H9.41353V1.92514C9.41353 1.43612 9.59936 1.2503 10.1128 1.2503H10.4356V0.125549H9.7314C8.52352 0.125549 7.95136 0.521655 7.95136 1.72954V2.50708H7.13959V3.76875H7.95136V8.31176H9.41353V3.76875H11.3012V6.61485C11.3012 7.79829 11.7559 8.31176 12.9394 8.31176H13.6925V7.02074H13.4039Z" fill="#1F1F1F"/>
<path d="M18.6561 4.88374C18.5534 4.13065 17.9372 3.67586 17.2135 3.67586C16.4946 3.67586 15.898 4.11598 15.7513 4.88374H18.6561ZM15.7366 5.78843C15.8393 6.6491 16.4555 7.13812 17.2379 7.13812C17.8541 7.13812 18.3284 6.8496 18.6072 6.38503H20.1085C19.7613 7.61736 18.6561 8.40469 17.2037 8.40469C15.4481 8.40469 14.2158 7.17236 14.2158 5.41677C14.2158 3.66119 15.5166 2.39462 17.2379 2.39462C18.969 2.39462 20.2258 3.67097 20.2258 5.41677C20.2258 5.54392 20.216 5.67106 20.1916 5.78843H15.7366Z" fill="#1F1F1F"/>
<path d="M29.5367 5.40699C29.5367 4.46807 28.8277 3.74432 27.9572 3.74432C27.0867 3.74432 26.3777 4.44362 26.3777 5.40699C26.3777 6.36058 27.0867 7.06966 27.9572 7.06966C28.8277 7.06966 29.5367 6.3508 29.5367 5.40699ZM24.9351 10.6835V2.50221H26.363V3.2553C26.7933 2.72227 27.434 2.39462 28.1968 2.39462C29.7666 2.39462 30.9989 3.68564 30.9989 5.39232C30.9989 7.099 29.7421 8.3998 28.1626 8.3998C27.4291 8.3998 26.8276 8.11128 26.407 7.62225V10.6786H24.9351V10.6835Z" fill="#1F1F1F"/>
<path d="M36.1483 5.40698C36.1483 4.42894 35.4393 3.74431 34.5688 3.74431C33.6984 3.74431 32.9893 4.44361 32.9893 5.40698C32.9893 6.36057 33.6984 7.06965 34.5688 7.06965C35.4393 7.06965 36.1483 6.38502 36.1483 5.40698ZM36.163 8.31177V7.55867C35.7327 8.08193 35.0921 8.40468 34.3292 8.40468C32.735 8.40468 31.5271 7.12834 31.5271 5.40698C31.5271 3.7003 32.7839 2.39951 34.3634 2.39951C35.1067 2.39951 35.7327 2.72715 36.163 3.23573V2.5022H37.591V8.31177H36.163Z" fill="#1F1F1F"/>
<path d="M22.3579 3.06947C22.3579 3.06947 22.7198 2.39462 23.6147 2.39462C23.9961 2.39462 24.2406 2.52666 24.2406 2.52666V4.00839C24.2406 4.00839 23.7027 3.67586 23.2088 3.74432C22.7149 3.81278 22.4019 4.26268 22.4019 4.86907V8.30688H20.925V2.50221H22.353V3.06947H22.3579Z" fill="#1F1F1F"/>
</svg>
