<svg width="25" height="25" viewBox="0 0 25 25" fill="none" xmlns="http://www.w3.org/2000/svg">
<path d="M20.6233 10.1107C20.3515 9.81625 19.9702 9.65 19.5697 9.65H17.2672V7.75C17.2672 5.13275 15.1268 3 12.5001 3C9.87337 3 7.73293 5.13275 7.73293 7.75V9.65H5.43041C5.02997 9.65 4.6486 9.81625 4.37687 10.1107C4.10514 10.4052 3.97166 10.7995 4.00503 11.1937L4.65336 18.9505C4.79638 20.6605 6.25512 22 7.98082 22H17.0193C18.7402 22 20.2037 20.6605 20.3468 18.9505L20.9951 11.1937C21.0285 10.7995 20.8902 10.4005 20.6233 10.1107ZM8.69112 7.75C8.69112 5.65525 10.4025 3.95 12.5048 3.95C14.6071 3.95 16.3185 5.65525 16.3185 7.75V9.65H8.69112V7.75ZM19.3981 18.8745C19.298 20.0952 18.254 21.05 17.0241 21.05H7.98559C6.75567 21.05 5.71167 20.0952 5.61156 18.8745L4.96323 11.1178C4.95369 10.9847 4.9966 10.8565 5.08717 10.7567C5.17775 10.657 5.30169 10.6047 5.43994 10.6047H19.5745C19.708 10.6047 19.8319 10.657 19.9273 10.7567C20.0178 10.8565 20.0607 10.9847 20.0512 11.1178L19.4029 18.8745H19.3981Z" fill="#454049" stroke="#454049" stroke-width="0.5"/>
</svg>
