<svg width="42" height="42" viewBox="0 0 42 42" fill="none" xmlns="http://www.w3.org/2000/svg">
<g clip-path="url(#clip0_713_1129)">
<path d="M42 21C42 9.40078 32.5992 0 21 0C9.40078 0 0 9.40078 0 21C0 32.5992 9.40078 42 21 42C21.123 42 21.2461 42 21.3691 41.9918V25.6512H16.8574V20.393H21.3691V16.5211C21.3691 12.034 24.109 9.58945 28.1121 9.58945C30.0316 9.58945 31.6805 9.72891 32.1562 9.79453V14.4867H29.4C27.2262 14.4867 26.7996 15.5203 26.7996 17.0379V20.3848H32.0086L31.3277 25.643H26.7996V41.1879C35.577 38.6695 42 30.5895 42 21Z" fill="#1F1F1F"/>
</g>
<defs>
<clipPath id="clip0_713_1129">
<rect width="42" height="42" fill="white"/>
</clipPath>
</defs>
</svg>
