<svg width="47" height="47" viewBox="0 0 47 47" fill="none" xmlns="http://www.w3.org/2000/svg">
<path d="M46.4452 23.5C46.4452 25.455 43.9304 27.052 43.4532 28.8509C42.9576 30.714 44.3159 33.3481 43.3706 34.9818C42.4161 36.6339 39.4424 36.7624 38.1024 38.1115C36.7624 39.4607 36.6339 42.4252 34.9726 43.3798C33.3389 44.3251 30.7048 42.9576 28.8417 43.4532C27.0428 43.9304 25.4458 46.4452 23.4909 46.4452C21.5359 46.4452 19.9389 43.9304 18.14 43.4532C16.2769 42.9576 13.6428 44.3159 12.0091 43.3706C10.357 42.4161 10.2285 39.4424 8.87935 38.1024C7.53017 36.7624 4.56565 36.6339 3.61113 34.9726C2.66579 33.3389 4.03333 30.7048 3.53771 28.8417C3.06045 27.0428 0.545654 25.4458 0.545654 23.4909C0.545654 21.5359 3.06045 19.9389 3.53771 18.14C4.03333 16.2769 2.67497 13.6428 3.62031 12.0091C4.57483 10.357 7.54853 10.2285 8.88853 8.87935C10.2285 7.53017 10.357 4.56565 12.0183 3.61113C13.652 2.66579 16.2861 4.03333 18.1492 3.53771C19.9481 3.06045 21.5451 0.545654 23.5 0.545654C25.455 0.545654 27.052 3.06045 28.8509 3.53771C30.714 4.03333 33.3481 2.67497 34.9818 3.62031C36.6339 4.57483 36.7624 7.54853 38.1115 8.88853C39.4607 10.2285 42.4252 10.357 43.3798 12.0183C44.3251 13.652 42.9576 16.2861 43.4532 18.1492C43.9304 19.9481 46.4452 21.5451 46.4452 23.5Z" fill="white"/>
<path d="M23.5 46.9042C22.2426 46.9042 21.1871 46.0598 20.1684 45.2338C19.4341 44.6372 18.7366 44.0774 18.0299 43.8938C17.2865 43.6919 16.3319 43.8387 15.4141 43.9764C14.1476 44.1691 12.8351 44.3711 11.7888 43.7653C10.7333 43.1504 10.2469 41.9022 9.77878 40.6998C9.43002 39.8004 9.09961 38.9468 8.56728 38.4237C8.03495 37.9005 7.19057 37.5609 6.29111 37.2122C5.08879 36.7441 3.84057 36.2576 3.22564 35.2022C2.61988 34.165 2.8218 32.8526 3.01454 31.5768C3.15221 30.659 3.29906 29.7045 3.09714 28.9611C2.91358 28.2635 2.35372 27.566 1.75714 26.8226C0.940293 25.8038 0.086731 24.7483 0.086731 23.4909C0.086731 22.2335 0.931115 21.178 1.75714 20.1593C2.35372 19.425 2.91358 18.7183 3.09714 18.0208C3.29906 17.2774 3.15221 16.3228 3.01454 15.405C2.8218 14.1385 2.61988 12.826 3.22564 11.7797C3.84057 10.7242 5.08879 10.2378 6.29111 9.76969C7.19057 9.42093 8.04413 9.09051 8.56728 8.55818C9.09961 8.02586 9.43002 7.18147 9.77878 6.28202C10.2469 5.07969 10.7333 3.83147 11.7888 3.21654C12.8259 2.61079 14.1384 2.81271 15.4141 3.00545C16.3319 3.14312 17.2865 3.28997 18.0299 3.08805C18.7274 2.90449 19.4249 2.34462 20.1592 1.74805C21.178 0.931199 22.2334 0.0776367 23.4908 0.0776367C24.7482 0.0776367 25.8037 0.922021 26.8225 1.74805C27.5567 2.34462 28.2634 2.90449 28.961 3.08805C29.7044 3.28997 30.6589 3.14312 31.5767 3.00545C32.8433 2.81271 34.1558 2.61997 35.2021 3.21654C36.2576 3.83147 36.744 5.07969 37.2121 6.28202C37.5608 7.18147 37.8912 8.03503 38.4236 8.55818C38.9559 9.09051 39.8003 9.42093 40.6997 9.76969C41.9021 10.2378 43.1503 10.7242 43.7652 11.7797C44.371 12.8168 44.1691 14.1293 43.9763 15.405C43.8386 16.3228 43.6918 17.2774 43.8937 18.0208C44.0773 18.7183 44.6371 19.4159 45.2337 20.1501C46.0506 21.1689 46.9041 22.2243 46.9041 23.4817C46.9041 24.7391 46.0597 25.7946 45.2337 26.8134C44.6371 27.5568 44.0773 28.2543 43.8937 28.9519C43.6918 29.6953 43.8386 30.6498 43.9763 31.5676C44.1691 32.8342 44.371 34.1467 43.7652 35.193C43.1503 36.2485 41.9021 36.7349 40.6997 37.203C39.8003 37.5517 38.9467 37.8822 38.4236 38.4145C37.9004 38.9468 37.5608 39.7912 37.2121 40.6907C36.744 41.893 36.2576 43.1412 35.2021 43.7561C34.165 44.3619 32.8525 44.16 31.5767 43.9672C30.6589 43.8296 29.7044 43.6827 28.961 43.8846C28.2634 44.0682 27.5659 44.628 26.8225 45.2246C25.8037 46.0415 24.7482 46.895 23.4908 46.895L23.5 46.9042ZM17.1855 42.8842C17.5618 42.8842 17.9289 42.9209 18.2777 43.0127C19.1588 43.2513 19.9665 43.8938 20.7466 44.5271C21.6828 45.2797 22.573 45.9956 23.5 45.9956C24.427 45.9956 25.3173 45.2797 26.2534 44.5271C27.0336 43.903 27.8412 43.2513 28.7223 43.0127C29.6493 42.7649 30.6956 42.9209 31.7144 43.077C32.88 43.2513 33.9814 43.4165 34.7432 42.976C35.5233 42.5263 35.9271 41.48 36.3585 40.3694C36.7256 39.4241 37.1111 38.442 37.7719 37.7812C38.4328 37.1204 39.4148 36.7349 40.3693 36.3678C41.4799 35.9364 42.5262 35.5326 42.9759 34.7524C43.4165 33.9907 43.2513 32.8893 43.0769 31.7237C42.9208 30.7049 42.7648 29.6586 43.0126 28.7316C43.2512 27.8505 43.8937 27.0428 44.527 26.2627C45.2796 25.3265 45.9955 24.4363 45.9955 23.5093C45.9955 22.5823 45.2796 21.692 44.527 20.7559C43.9029 19.9757 43.2512 19.168 43.0126 18.287C42.7648 17.36 42.9208 16.3137 43.0769 15.2949C43.2513 14.1293 43.4165 13.0279 42.9759 12.2661C42.5262 11.486 41.4799 11.0822 40.3693 10.6508C39.424 10.2837 38.4419 9.89818 37.7719 9.23736C37.1111 8.57654 36.7256 7.59449 36.3585 6.63997C35.9271 5.52942 35.5233 4.48312 34.7432 4.03339C33.9814 3.59284 32.88 3.75805 31.7236 3.93243C30.7048 4.08846 29.6585 4.24449 28.7315 3.99668C27.8504 3.75805 27.0428 3.11558 26.2626 2.4823C25.3265 1.72969 24.4362 1.0138 23.5092 1.0138C22.5822 1.0138 21.6919 1.72969 20.7558 2.4823C19.9756 3.1064 19.168 3.75805 18.2869 3.99668C17.3599 4.24449 16.3136 4.07928 15.2948 3.93243C14.1292 3.75805 13.0278 3.59284 12.266 4.03339C11.4859 4.48312 11.0821 5.52942 10.6507 6.63997C10.2836 7.58531 9.8981 8.56736 9.23728 9.23736C8.57646 9.89818 7.5944 10.2837 6.63988 10.6508C5.52933 11.0822 4.48303 11.486 4.03331 12.2661C3.59276 13.0279 3.75796 14.1293 3.93235 15.2949C4.08838 16.3137 4.2444 17.36 3.99659 18.287C3.75796 19.168 3.1155 19.9757 2.48221 20.765C1.72961 21.7012 1.01372 22.5915 1.01372 23.5185C1.01372 24.4454 1.72961 25.3357 2.48221 26.2719C3.10632 27.052 3.75796 27.8597 3.99659 28.7408C4.2444 29.6678 4.08838 30.7141 3.93235 31.7328C3.75796 32.8985 3.59276 33.9907 4.03331 34.7524C4.48303 35.5326 5.52933 35.9364 6.63988 36.3678C7.58522 36.7349 8.56728 37.1204 9.23728 37.7812C9.90728 38.442 10.2836 39.4241 10.6507 40.3786C11.0821 41.4891 11.4859 42.5354 12.266 42.9852C13.0278 43.4257 14.1292 43.2605 15.2948 43.0861C15.9281 42.9944 16.5797 42.8934 17.1947 42.8934L17.1855 42.8842Z" fill="#1F1F1F"/>
</svg>
