<svg width="51" height="49" viewBox="0 0 51 49" fill="none" xmlns="http://www.w3.org/2000/svg">
<path d="M5.12653 31.8767L16.7353 43.4786L13.775 46.4458" fill="white"/>
<path d="M13.7682 46.9381C13.6451 46.9381 13.5152 46.8902 13.4195 46.7945C13.2281 46.6031 13.2281 46.2886 13.4195 46.0972L16.0311 43.4855L4.77785 32.2323C4.58642 32.0408 4.58642 31.7264 4.77785 31.5349C4.96928 31.3435 5.28377 31.3435 5.47519 31.5349L17.0771 43.1437C17.2686 43.3351 17.2686 43.6496 17.0771 43.8411L14.1168 46.8014C14.0211 46.8971 13.8912 46.9449 13.7682 46.9449V46.9381Z" fill="#1F1F1F"/>
<path d="M38.3872 31.0223L45.8393 27.0502C47.0836 26.4143 48.656 26.6263 49.5653 27.686C50.8096 29.1285 50.4336 31.2616 48.8953 32.2187L34.4629 41.2842C33.205 42.0773 31.7488 42.4943 30.2584 42.4943H19.1145C18.2189 42.4943 17.3643 42.8498 16.7285 43.4788" fill="white"/>
<path d="M16.7353 43.9778C16.6122 43.9778 16.4823 43.93 16.3866 43.8343C16.1952 43.6428 16.1952 43.3284 16.3866 43.1369C17.1181 42.4054 18.089 42.002 19.1213 42.002H30.2652C31.6599 42.002 33.0272 41.6123 34.21 40.8671L48.6423 31.8016C49.2713 31.4119 49.6884 30.7761 49.7977 30.0446C49.9071 29.3062 49.6952 28.5884 49.2029 28.0072C48.4646 27.1526 47.1519 26.9407 46.0717 27.4876L38.6265 31.453C38.3872 31.5828 38.0864 31.4871 37.9565 31.2478C37.8266 31.0086 37.9223 30.7077 38.1616 30.5778L45.6137 26.6057C47.0972 25.8468 48.9158 26.1613 49.9481 27.3509C50.625 28.1371 50.9258 29.1695 50.7754 30.1813C50.6181 31.1932 50.037 32.0888 49.1619 32.6289L34.7296 41.6944C33.3896 42.5353 31.8445 42.9797 30.2652 42.9797H19.1213C18.3556 42.9797 17.6309 43.2805 17.084 43.8206C16.9882 43.9163 16.8583 43.9642 16.7353 43.9642V43.9778Z" fill="#1F1F1F"/>
<path d="M22.6627 34.591H35.338C36.9447 34.591 38.3804 33.3877 38.4624 31.7879C38.5513 30.0788 37.1908 28.6636 35.5021 28.6636H25.8897C25.1718 28.6636 24.4745 28.4653 23.8523 28.0961C22.8678 27.515 20.9125 26.6877 17.7266 26.6877C10.8147 26.6877 5.8717 32.6152 5.8717 32.6152" fill="white"/>
<path d="M35.3312 35.0901H22.6559C22.3824 35.0901 22.1636 34.8714 22.1636 34.5979C22.1636 34.3244 22.3824 34.1057 22.6559 34.1057H35.3312C36.7191 34.1057 37.895 33.0596 37.9633 31.7675C37.9975 31.0838 37.7582 30.4275 37.2865 29.9353C36.8148 29.4362 36.179 29.1627 35.4953 29.1627H25.8828C25.0898 29.1627 24.2967 28.9439 23.5925 28.5269C22.7516 28.0278 20.8647 27.1869 17.7129 27.1869C11.1155 27.1869 6.28875 32.875 6.24089 32.9366C6.06314 33.1485 5.75548 33.1759 5.54354 32.9981C5.3316 32.8204 5.30426 32.5127 5.48201 32.3008C5.68711 32.0546 10.6506 26.1956 17.7129 26.1956C20.933 26.1956 22.9567 27.0023 24.0916 27.6723C24.6385 28.0005 25.2539 28.1714 25.876 28.1714H35.4884C36.4456 28.1714 37.3344 28.5542 37.9975 29.2516C38.6539 29.9489 38.9957 30.8582 38.941 31.8154C38.8453 33.6203 37.225 35.0901 35.3244 35.0901H35.3312Z" fill="#1F1F1F"/>
<path d="M44.3899 8.45412C44.3899 17.8546 30.5592 24.7119 30.5592 24.7119C30.5592 24.7119 16.7285 17.8546 16.7285 8.45412C16.7285 4.37942 20.0306 1.00891 24.1053 1.00891C26.881 1.00891 29.3012 2.54718 30.5592 4.81697C31.8171 2.54718 34.2305 1.00891 37.013 1.00891C41.0877 1.00891 44.3899 4.37942 44.3899 8.45412Z" fill="white"/>
<path d="M30.5592 25.211C30.484 25.211 30.4088 25.1973 30.3404 25.1563C30.1968 25.0879 26.7921 23.3856 23.3327 20.4868C18.6906 16.6104 16.243 12.4468 16.243 8.45417C16.243 4.07866 19.7708 0.516724 24.1121 0.516724C26.6964 0.516724 29.1029 1.78836 30.566 3.88723C32.0291 1.78836 34.4356 0.516724 37.0199 0.516724C41.3612 0.516724 44.889 4.07866 44.889 8.45417C44.889 12.4468 42.4346 16.6104 37.7993 20.4868C34.3399 23.3788 30.9283 25.0811 30.7916 25.1563C30.7232 25.1905 30.648 25.211 30.5728 25.211H30.5592ZM24.1053 1.50805C20.3109 1.50805 17.2275 4.6256 17.2275 8.46101C17.2275 16.8155 28.809 23.242 30.5592 24.165C32.3094 23.242 43.8908 16.8087 43.8908 8.46101C43.8908 4.6256 40.8074 1.50805 37.013 1.50805C34.5108 1.50805 32.2068 2.86856 30.9899 5.06315C30.819 5.37764 30.2994 5.37764 30.1285 5.06315C28.9115 2.86856 26.6075 1.50805 24.1053 1.50805Z" fill="#1F1F1F"/>
<path d="M25.4316 31.5897C28.9252 31.5145 32.4324 32.0272 35.7756 33.1074C35.7209 34.7483 34.504 36.0746 33.2529 37.0522C28.8842 40.4775 23.3738 41.7969 17.9933 42.6652C17.5831 42.7336 17.166 42.7951 16.7627 42.6857C16.2841 42.5558 15.8944 42.2071 15.5252 41.8653C12.2231 38.8093 8.92092 35.7464 5.61877 32.6904C7.76551 30.947 10.5754 30.1471 13.2622 30.5163" fill="white"/>
<path d="M38.3872 31.2684L45.8393 27.2962C47.0836 26.6604 48.656 26.8724 49.5653 27.9321C50.8096 29.3746 50.4336 31.5077 48.8953 32.4648L34.4629 41.5303C33.205 42.3234 31.7488 42.7404 30.2584 42.7404H19.1145C18.2189 42.7404 17.3643 43.0959 16.7285 43.7249" fill="white"/>
<path d="M16.7353 44.2239C16.6122 44.2239 16.4823 44.1761 16.3866 44.0804C16.1952 43.8889 16.1952 43.5745 16.3866 43.383C17.1181 42.6515 18.089 42.2481 19.1213 42.2481H30.2652C31.6599 42.2481 33.0272 41.8584 34.21 41.1132L48.6423 32.0477C49.2713 31.658 49.6884 31.0222 49.7977 30.2907C49.9071 29.5523 49.6952 28.8276 49.2029 28.2533C48.4646 27.3987 47.1519 27.18 46.0717 27.7337L38.6265 31.699C38.3872 31.8289 38.0864 31.7332 37.9565 31.4939C37.8266 31.2547 37.9223 30.9538 38.1616 30.8239L45.6137 26.8518C47.0972 26.0929 48.9158 26.4074 49.9481 27.597C50.625 28.3832 50.9258 29.4156 50.7754 30.4274C50.6181 31.4393 50.037 32.328 49.1619 32.8681L34.7296 41.9336C33.3896 42.7746 31.8445 43.2189 30.2652 43.2189H19.1213C18.3556 43.2189 17.6309 43.5198 17.084 44.0599C16.9882 44.1556 16.8583 44.2034 16.7353 44.2034V44.2239Z" fill="#1F1F1F"/>
<path d="M22.6627 33.8526H35.338C36.9447 33.8526 38.3804 32.6493 38.4624 31.0495C38.5513 29.3404 37.1908 27.9252 35.5021 27.9252H25.8897C25.1718 27.9252 24.4745 27.7269 23.8523 27.3577C22.8678 26.7766 20.9125 25.9493 17.7266 25.9493C10.8147 25.9493 5.8717 31.8768 5.8717 31.8768" fill="white"/>
<path d="M35.3312 34.3449H22.6559C22.3824 34.3449 22.1636 34.1261 22.1636 33.8527C22.1636 33.5792 22.3824 33.3604 22.6559 33.3604H35.3312C36.7191 33.3604 37.895 32.3144 37.9633 31.0223C37.9975 30.3386 37.7582 29.6823 37.2865 29.19C36.8148 28.6909 36.179 28.4175 35.4953 28.4175H25.8828C25.0898 28.4175 24.2967 28.1987 23.5925 27.7816C22.7516 27.2826 20.8647 26.4416 17.7129 26.4416C11.1155 26.4416 6.28875 32.1298 6.24089 32.1913C6.06314 32.4033 5.75548 32.4306 5.54354 32.2529C5.3316 32.0751 5.30426 31.7675 5.48201 31.5555C5.68711 31.3094 10.6506 25.4503 17.7129 25.4503C20.933 25.4503 22.9567 26.2571 24.0916 26.9271C24.6385 27.2552 25.2539 27.4261 25.876 27.4261H35.4884C36.4456 27.4261 37.3344 27.809 37.9975 28.5063C38.6539 29.2037 38.9957 30.113 38.941 31.0701C38.8453 32.875 37.225 34.3449 35.3244 34.3449H35.3312Z" fill="#1F1F1F"/>
<path d="M15.4363 47.991L18.9572 44.4701L5.37945 30.8923L0.682617 35.5823L15.4363 47.991Z" fill="white"/>
<path d="M15.4363 48.4833C15.3201 48.4833 15.2107 48.4423 15.1218 48.3671L0.368148 35.9584C0.25876 35.8695 0.197229 35.7396 0.190393 35.6029C0.183556 35.4662 0.23825 35.3294 0.333964 35.2337L5.02396 30.5437C5.21539 30.3523 5.52988 30.3523 5.72131 30.5437L19.2991 44.1215C19.4905 44.3129 19.4905 44.6274 19.2991 44.8188L15.7781 48.3397C15.6824 48.4355 15.5525 48.4833 15.4295 48.4833H15.4363ZM1.41417 35.5482L15.409 47.3211L18.2599 44.4701L5.37947 31.5897L1.42101 35.5482H1.41417Z" fill="#1F1F1F"/>
</svg>
