<svg width="87" height="89" viewBox="0 0 87 89" fill="none" xmlns="http://www.w3.org/2000/svg">
<path d="M81.0366 58.237C78.3909 63.629 72.906 67.6632 66.9047 67.6503C63.5363 67.6503 60.284 66.5254 56.9543 66.0728C51.2886 65.3099 45.3648 66.5383 40.4735 69.5123C37.1954 71.5035 34.3175 74.2577 30.678 75.4731C25.6318 77.1541 19.9016 75.4473 15.733 72.1371C11.5644 68.827 8.73801 64.1074 6.5053 59.2715C2.982 51.6426 0.684749 43.1086 2.22055 34.8461C2.60772 32.7902 3.24012 30.7214 4.49199 29.0404C7.36999 25.1872 12.7389 24.2045 17.5399 24.4243C22.3408 24.6312 27.1934 25.7303 31.904 24.7993C38.3182 23.5451 43.5193 18.6703 46.9909 13.1232C48.9655 9.96825 50.5659 6.47707 53.3278 3.99445C56.0896 1.51183 60.5679 0.373968 63.4976 2.6497C63.4976 2.6497 98.6918 22.1744 81.0237 58.237H81.0366Z" fill="white"/>
<path d="M26.5353 76.986C22.6764 76.986 18.6111 75.5378 15.191 72.8095C11.5387 69.9131 8.51869 65.7237 5.71812 59.6335C1.4721 50.4271 0.000835776 42.0354 1.36886 34.678C1.85928 32.0403 2.63364 30.0878 3.79516 28.5103C7.30555 23.8166 13.9262 23.377 17.5786 23.545C19.0628 23.6097 20.5598 23.7649 22.0053 23.9071C25.3866 24.2433 28.5744 24.5665 31.7364 23.9459C39.1314 22.4977 44.0098 16.2524 46.2554 12.6577C46.7459 11.8819 47.1975 11.0932 47.6621 10.3044C49.0947 7.84767 50.5659 5.31333 52.747 3.34792C55.6896 0.710144 60.6325 -0.660468 64.0267 1.96438C64.2719 2.09368 99.6211 22.2391 81.7981 58.612C78.8943 64.5341 72.9189 68.5037 66.9305 68.5037H66.8919C64.6979 68.5037 62.5684 68.0382 60.5035 67.6115C59.2903 67.3529 58.0513 67.0943 56.8253 66.9262C51.3274 66.1762 45.6618 67.3658 40.9124 70.2493C39.8412 70.8958 38.7829 71.6587 37.7505 72.3957C35.6468 73.8956 33.4786 75.4473 30.9361 76.3007C29.5294 76.7661 28.0452 76.9989 26.5223 76.9989L26.5353 76.986ZM16.3525 25.2518C12.9454 25.2518 7.88634 25.9242 5.18902 29.5447C4.18236 30.8895 3.51124 32.6221 3.07244 34.9884C1.76895 41.9836 3.18861 50.0263 7.29268 58.8965C9.99 64.728 12.8421 68.7235 16.2751 71.4518C20.5986 74.8783 26.019 76.1067 30.407 74.6456C32.7043 73.8827 34.6659 72.4733 36.7567 70.9734C37.802 70.2234 38.8991 69.4476 40.0219 68.7623C45.1068 65.672 51.1596 64.4048 57.0705 65.2065C58.361 65.3745 59.6387 65.6461 60.8777 65.9176C62.9426 66.3573 64.9043 66.771 66.9176 66.784H66.9564C72.2994 66.784 77.6553 63.2023 80.2752 57.862C97.3755 22.9761 64.5172 4.20132 63.1105 3.42551C60.439 1.36959 56.3865 2.45573 53.9344 4.65388C51.9598 6.42533 50.6047 8.73986 49.185 11.1837C48.7075 11.9983 48.2429 12.8 47.7525 13.5887C45.352 17.4161 40.1251 24.0752 32.0977 25.6527C28.6905 26.3251 25.2189 25.9759 21.8634 25.6527C20.4308 25.5104 18.9596 25.3682 17.527 25.3036C17.1785 25.2906 16.7914 25.2777 16.3784 25.2777L16.3525 25.2518Z" fill="#1F1F1F"/>
<path d="M62.2974 77.8394C62.5813 80.1022 63.175 82.3132 64.0655 84.4079C64.6462 85.7785 65.5496 87.2397 67.008 87.4983C67.7565 87.6276 68.5309 87.4078 69.2278 87.0716C72.3123 85.6105 77.5908 78.1238 74.2998 74.9171C71.5122 72.2017 61.665 72.8483 62.2845 77.8264L62.2974 77.8394Z" fill="white"/>
<path d="M67.4726 88.4163C67.2661 88.4163 67.0596 88.4034 66.866 88.3646C65.3689 88.106 64.1945 86.9294 63.2782 84.7571C62.3489 82.5848 61.7424 80.2961 61.4455 77.9557C61.2132 76.0679 62.1683 74.4775 64.13 73.4948C67.4468 71.8397 72.8027 72.2405 74.9193 74.3094C76.0163 75.3697 76.4292 76.9084 76.1195 78.7315C75.5129 82.3779 72.0542 86.7095 69.6021 87.8733C68.8277 88.2353 68.1308 88.4163 67.4726 88.4163ZM63.162 77.7359C63.4331 79.9211 64.0139 82.0546 64.8785 84.0847C65.5367 85.6363 66.3111 86.5027 67.1757 86.6578C67.6404 86.7354 68.2082 86.619 68.8793 86.3087C70.6861 85.4553 73.8868 81.6926 74.4288 78.4471C74.6353 77.1928 74.403 76.2101 73.719 75.5507C72.1316 73.9991 67.5242 73.7405 64.9172 75.0464C63.6137 75.6929 63.033 76.598 63.175 77.7359H63.162Z" fill="#1F1F1F"/>
</svg>
