<svg width="51" height="50" viewBox="0 0 51 50" fill="none" xmlns="http://www.w3.org/2000/svg">
<path d="M14.8757 46.3011C3.26695 49.2751 -4.0005 34.5966 4.31297 21.4017C5.24277 29.2913 16.1747 27.9445 18.7932 33.7831C20.769 38.1859 18.3351 42.4589 18.3351 42.4589C18.3351 42.4589 16.708 46.0413 14.7322 46.0413" fill="white"/>
<path d="M11.8812 47.183C8.38767 47.183 5.28379 45.5832 3.0892 42.5682C-0.301825 37.9192 -1.36836 29.4827 3.89593 21.135C4.00532 20.9573 4.21726 20.8752 4.42236 20.9163C4.62746 20.9641 4.77787 21.135 4.80522 21.3401C5.29062 25.449 8.6543 26.8711 12.2094 28.3683C15.0603 29.5716 18.007 30.8159 19.2444 33.5711C21.2954 38.1517 18.8684 42.5067 18.7658 42.6913C18.6223 43.0126 17.2617 45.8909 15.3543 46.4378C15.3064 46.595 15.1765 46.7249 15.0056 46.766C13.9459 47.0394 12.8999 47.1693 11.8881 47.1693L11.8812 47.183ZM4.07369 22.7622C-0.192437 30.351 0.83991 37.8098 3.88226 41.9871C6.36399 45.3918 10.1174 46.8138 14.2399 45.9387C14.2878 45.7131 14.486 45.549 14.7253 45.549C16.079 45.549 17.46 43.1698 17.8771 42.2537C17.9181 42.1717 20.181 38.097 18.3351 33.9813C17.2549 31.5747 14.6159 30.4604 11.8197 29.2844C8.51756 27.8897 5.11971 26.4609 4.07369 22.7622Z" fill="#1F1F1F"/>
<path d="M22.7312 49.3844C22.7312 49.3844 22.697 49.3844 22.6765 49.3844C11.1839 48.1811 7.41003 38.2884 6.17258 35.0341C6.07687 34.7811 6.19993 34.494 6.45972 34.3983C6.71268 34.3026 6.99983 34.4256 7.09554 34.6854C10.3225 43.1493 15.45 47.6342 22.779 48.3999C23.0525 48.4273 23.2439 48.6734 23.2166 48.94C23.1892 49.193 22.9773 49.3844 22.7243 49.3844H22.7312Z" fill="#1F1F1F"/>
<path d="M46.9537 27.3633C55.3355 35.9297 46.2563 49.5622 30.6754 48.9605C37.0404 44.209 30.4088 35.417 34.1553 30.2347C36.9789 26.3241 41.9013 26.2968 41.9013 26.2968L47.3229 27.2812" fill="white"/>
<path d="M31.6873 49.4733C31.3454 49.4733 31.0036 49.4733 30.6618 49.4528C30.4498 49.446 30.2721 49.3093 30.2105 49.1042C30.149 48.8991 30.2174 48.6871 30.3883 48.5641C33.7041 46.0892 33.2529 42.4657 32.7743 38.6371C32.3914 35.5674 31.9949 32.3952 33.7656 29.9408C36.7054 25.8729 41.6962 25.7977 41.9082 25.7977C41.9355 25.7977 41.9697 25.7977 41.9971 25.8046L47.4186 26.7891C47.6852 26.8369 47.863 27.0967 47.8151 27.3633C47.8083 27.4112 47.7878 27.4591 47.7673 27.5001C50.8028 30.9253 51.4865 35.2324 49.62 39.4302C47.3707 44.5099 40.9852 49.4665 31.6873 49.4665V49.4733ZM41.8672 26.7891C41.3954 26.8027 37.0678 27.0557 34.5655 30.5219C33.0204 32.6618 33.3759 35.5059 33.752 38.5141C34.1963 42.0692 34.6544 45.7337 31.9744 48.482C40.6776 48.3863 46.6187 43.7578 48.7176 39.0337C50.4951 35.0273 49.7226 30.8979 46.605 27.7052C46.5845 27.6847 46.564 27.6573 46.5503 27.6368L41.8672 26.7891Z" fill="#1F1F1F"/>
<path d="M41.1698 40.7155C41.0604 40.7155 40.951 40.6813 40.8553 40.6061C40.6434 40.4352 40.6092 40.1207 40.787 39.9088C46.5025 32.8874 47.822 26.2011 44.8275 19.4669C44.7181 19.2208 44.8275 18.9268 45.0804 18.8174C45.3265 18.708 45.6205 18.8174 45.7299 19.0704C50.4336 29.6263 43.7541 37.8372 41.5595 40.5377C41.4638 40.6608 41.3202 40.7223 41.1767 40.7223L41.1698 40.7155Z" fill="#1F1F1F"/>
<path d="M14.5202 9.04769C17.7471 -2.49272 34.0938 -1.4467 41.3612 12.3498C34.0596 9.21177 29.7661 19.3507 23.4011 18.7012C18.6017 18.2089 16.12 13.9633 16.12 13.9633C16.12 13.9633 13.7477 11.5773 14.7321 9.05453" fill="white"/>
<path d="M23.9891 19.2208C23.7772 19.2208 23.5652 19.2071 23.3533 19.1866C18.5949 18.7012 16.0517 14.7906 15.7235 14.2641C15.3953 13.9155 13.4947 11.7756 14.1237 9.34169C14.0348 9.22547 14.0006 9.06822 14.0485 8.91781C15.368 4.2073 18.8616 1.21965 23.6473 0.706894C29.3628 0.0915883 37.2045 3.38689 41.8056 12.1174C41.9013 12.302 41.874 12.5276 41.7304 12.6849C41.5869 12.8421 41.3612 12.8831 41.1698 12.8011C37.3686 11.1671 34.4561 13.3685 31.3796 15.6999C29.0893 17.4364 26.7306 19.2208 23.9959 19.2208H23.9891ZM15.1219 8.75373C15.2244 8.88363 15.2586 9.06822 15.1902 9.23914C14.3356 11.4269 16.4482 13.601 16.4687 13.6215C16.496 13.6488 16.5234 13.683 16.5439 13.7172C16.5712 13.7582 18.9641 17.7509 23.449 18.2089C26.0743 18.4756 28.3578 16.7459 30.778 14.9136C33.6357 12.7532 36.5755 10.5244 40.3016 11.4679C35.8645 3.98169 28.8979 1.14445 23.743 1.69138C19.5316 2.14261 16.4072 4.70638 15.1219 8.75373Z" fill="#1F1F1F"/>
<path d="M8.34664 15.0504C8.24409 15.0504 8.14837 15.0231 8.05949 14.9547C7.84072 14.7975 7.79286 14.483 7.95011 14.2642C9.755 11.7756 11.9701 9.87501 14.5202 8.61021C18.3556 6.7096 22.9773 6.23103 28.6312 7.14031C28.8979 7.18133 29.0825 7.43429 29.0414 7.70776C29.0004 7.97439 28.7406 8.15899 28.474 8.11796C25.0009 7.55735 19.8118 7.09245 14.9578 9.49899C12.5512 10.6886 10.466 12.4866 8.75 14.8453C8.65429 14.9752 8.50388 15.0504 8.34664 15.0504Z" fill="#1F1F1F"/>
</svg>
