<svg width="88" height="89" viewBox="0 0 88 89" fill="none" xmlns="http://www.w3.org/2000/svg">
<path d="M85.972 56.5044C80.9129 74.5939 64.3547 87.8474 44.6862 87.8474C21.0039 87.8474 1.80002 68.6071 1.80002 44.88C1.80002 21.153 21.0039 1.9256 44.6862 1.9256C56.8822 1.9256 67.878 7.03307 75.686 15.2179C75.686 15.2179 90.9924 27.9931 85.972 56.5044Z" fill="white"/>
<path d="M44.6861 88.7784C20.5264 88.7784 0.870789 69.0856 0.870789 44.88C0.870789 20.6745 20.5264 0.981689 44.6861 0.981689C56.7531 0.981689 68.007 5.80469 76.3571 14.5585C76.925 15.024 91.9345 27.9414 86.8883 56.6466C86.8883 56.6725 86.8883 56.7113 86.8625 56.7371C81.584 75.6024 64.2385 88.7655 44.6861 88.7655V88.7784ZM44.6861 2.85658C21.5589 2.85658 2.74214 21.709 2.74214 44.88C2.74214 68.0511 21.5589 86.9035 44.6861 86.9035C63.3996 86.9035 79.9966 74.3094 85.0557 56.2846C89.8953 28.6655 75.2343 16.0455 75.0794 15.9291C67.0004 7.4727 56.2369 2.85658 44.6732 2.85658H44.6861Z" fill="#1F1F1F"/>
</svg>
