<svg width="100" height="92" viewBox="0 0 100 92" fill="none" xmlns="http://www.w3.org/2000/svg">
<path d="M44.2797 63.1808C43.8151 63.1808 43.3505 63.0386 42.9376 62.7541C42.189 62.2369 41.8277 61.3447 41.9696 60.4525L42.7956 55.3838C42.8472 55.0864 42.744 54.7761 42.5375 54.5563L39.0142 50.9229C38.3947 50.2893 38.1882 49.3712 38.4721 48.5308C38.756 47.6903 39.4659 47.0826 40.3435 46.9533L45.0541 46.2292C45.3767 46.1775 45.6478 45.9706 45.7768 45.6861L47.8418 41.2639C48.2289 40.4364 49.042 39.9192 49.9583 39.9192C50.8747 39.9192 51.6877 40.4364 52.0749 41.2639L54.1398 45.699C54.2818 45.9835 54.5528 46.1904 54.8626 46.2421L59.5861 46.9662C60.4637 47.0955 61.1735 47.7032 61.4575 48.5437C61.7414 49.3842 61.5349 50.3022 60.9154 50.9358L57.3921 54.5692C57.1856 54.789 57.0824 55.0994 57.134 55.3968L57.9599 60.4654C58.1019 61.3706 57.7406 62.2498 56.992 62.767C56.2564 63.2842 55.3014 63.336 54.5141 62.8963L50.4359 60.6206C50.139 60.4525 49.7906 60.4654 49.5066 60.6206L45.4284 62.8963C45.067 63.0903 44.6798 63.1937 44.2927 63.1937L44.2797 63.1808ZM49.9583 41.445C49.8422 41.445 49.4421 41.4838 49.2485 41.8975L47.1836 46.3326C46.8222 47.0955 46.1253 47.6256 45.2864 47.755L40.5758 48.479C40.2789 48.5308 40.0337 48.7247 39.9434 49.0221C39.8401 49.3066 39.9176 49.6169 40.1241 49.8367L43.6474 53.4701C44.2023 54.0391 44.4475 54.8407 44.3314 55.6295L43.5054 60.6982C43.4538 61.0085 43.5828 61.3059 43.8409 61.4869C44.0991 61.6679 44.4088 61.6809 44.6799 61.5257L48.7581 59.25C49.5195 58.8233 50.4359 58.8233 51.1973 59.25L55.2756 61.5257C55.5466 61.6809 55.8563 61.655 56.1144 61.4869C56.3725 61.3059 56.4887 61.0085 56.4371 60.6982L55.6111 55.6295C55.4821 54.8407 55.7402 54.0391 56.2951 53.4701L59.8184 49.8367C60.0378 49.6169 60.1023 49.3195 59.9991 49.0221C59.8958 48.7377 59.6635 48.5308 59.3667 48.492L54.6432 47.7679C53.8172 47.6386 53.1074 47.1084 52.746 46.3455L50.6811 41.9105C50.4875 41.4838 50.0874 41.4579 49.9712 41.4579L49.9583 41.445Z" fill="#1F1F1F"/>
<path d="M37.8785 39.1175H25.4888C23.7724 39.1175 22.3915 40.501 22.3915 42.2208C22.3915 56.8449 31.5675 69.3097 44.4605 74.1845" fill="white"/>
<path d="M44.4605 74.9603C44.3701 74.9603 44.2798 74.9473 44.1895 74.9086C30.6899 69.814 21.6171 56.6768 21.6171 42.2208C21.6171 40.0743 23.3594 38.3417 25.4888 38.3417H37.8785C38.3044 38.3417 38.6528 38.6908 38.6528 39.1175C38.6528 39.5442 38.3044 39.8933 37.8785 39.8933H25.4888C24.2112 39.8933 23.1658 40.9407 23.1658 42.2208C23.1658 56.0303 31.8385 68.5856 44.7315 73.4604C45.1316 73.6155 45.3381 74.0552 45.1832 74.456C45.067 74.7663 44.7702 74.9603 44.4605 74.9603Z" fill="#1F1F1F"/>
<path d="M54.9271 74.1845C67.82 69.3097 76.9961 56.8449 76.9961 42.2208C76.9961 40.501 75.6152 39.1175 73.8987 39.1175H61.5091" fill="white"/>
<path d="M54.9271 74.9603C54.6174 74.9603 54.3205 74.7663 54.2044 74.456C54.0495 74.0552 54.256 73.6026 54.6561 73.4604C67.5619 68.5856 76.2218 56.0432 76.2218 42.2208C76.2218 40.9407 75.1764 39.8933 73.8987 39.8933H61.5091C61.0832 39.8933 60.7347 39.5442 60.7347 39.1175C60.7347 38.6908 61.0832 38.3417 61.5091 38.3417H73.8987C76.0411 38.3417 77.7705 40.0873 77.7705 42.2208C77.7705 56.6768 68.6977 69.814 55.1982 74.9086C55.1078 74.9473 55.0174 74.9603 54.9271 74.9603Z" fill="#1F1F1F"/>
<path d="M45.8027 73.6543V76.9128C45.8027 79.9255 43.2731 82.1754 40.2144 82.24C37.2461 82.3047 34.8456 84.6968 34.8456 87.6449V88.9897C34.8456 89.7396 35.4651 90.3344 36.2136 90.3344H63.6127C64.3742 90.3344 64.9808 89.7267 64.9808 88.9897V87.5673C64.9808 84.5546 62.4512 82.3047 59.3925 82.24C56.4242 82.1754 54.0237 79.7833 54.0237 76.8352V73.6414" fill="white"/>
<path d="M63.6127 91.1232H36.2136C35.0263 91.1232 34.0713 90.1663 34.0713 89.0026V87.6578C34.0713 84.3218 36.8202 81.5547 40.2015 81.4772C42.9118 81.4254 45.0283 79.4212 45.0283 76.9257V73.6673C45.0283 73.2406 45.3768 72.8914 45.8027 72.8914C46.2286 72.8914 46.577 73.2406 46.577 73.6673V76.9257C46.577 80.2746 43.7894 82.9641 40.2273 83.0288C37.6849 83.0805 35.6199 85.1494 35.6199 87.6449V88.9897C35.6199 89.3129 35.891 89.5586 36.2136 89.5586H63.6127C63.9354 89.5586 64.2064 89.3 64.2064 88.9897V87.5673C64.2064 85.0718 62.0898 83.0676 59.3796 83.0159C55.9983 82.9512 53.2493 80.1841 53.2493 76.8352V73.6414C53.2493 73.2147 53.5978 72.8656 54.0237 72.8656C54.4496 72.8656 54.7981 73.2147 54.7981 73.6414V76.8352C54.7981 79.3307 56.863 81.4125 59.4054 81.4513C62.9674 81.5159 65.7551 84.2054 65.7551 87.5544V88.9767C65.7551 90.1534 64.7872 91.0973 63.6127 91.0973V91.1232Z" fill="#1F1F1F"/>
<path d="M49.2227 16.6059L46.0221 18.3902C45.1187 18.8945 44.0475 18.1316 44.2153 17.1101L44.8605 13.1276C44.9251 12.7009 44.796 12.2613 44.4863 11.9509L41.7115 9.09336C41.0146 8.36926 41.4147 7.15381 42.4084 6.99865L46.1124 6.42972C46.5641 6.36506 46.9513 6.06767 47.1449 5.6539L48.771 2.17565C49.2098 1.23173 50.552 1.23173 51.0037 2.17565L52.6299 5.6539C52.8234 6.06767 53.2106 6.35213 53.6623 6.42972L57.3663 6.99865C58.3601 7.15381 58.7602 8.36926 58.0632 9.08042L55.2885 11.938C54.9917 12.2483 54.8497 12.688 54.9142 13.1147L55.5595 17.0972C55.7273 18.1187 54.6432 18.8816 53.7527 18.3773L50.552 16.5929C50.139 16.3602 49.6357 16.3602 49.2227 16.5929V16.6059Z" fill="white"/>
<path d="M45.4155 19.3212C45.0154 19.3212 44.6154 19.2048 44.2669 18.9592C43.6345 18.5066 43.3118 17.7567 43.4409 16.9808L44.0862 12.9983C44.112 12.8173 44.0604 12.6233 43.9313 12.494L41.1566 9.63643C40.6274 9.09335 40.4467 8.3046 40.6919 7.59344C40.9372 6.86934 41.5438 6.35213 42.2923 6.23576L45.9963 5.66682C46.1899 5.64096 46.3576 5.51166 46.4351 5.33064L48.0612 1.85239C48.3968 1.14122 49.0937 0.68866 49.8809 0.68866C50.6682 0.68866 51.3651 1.12829 51.7006 1.83946L53.3268 5.31771C53.4042 5.49873 53.572 5.6151 53.7656 5.65389L57.4825 6.22283C58.231 6.3392 58.8376 6.85641 59.0828 7.56758C59.328 8.29167 59.1473 9.06749 58.6182 9.61056L55.8434 12.4682C55.7144 12.5975 55.6499 12.7914 55.6886 12.9724L56.3339 16.955C56.4629 17.7308 56.1403 18.4807 55.5079 18.9333C54.8755 19.3729 54.0624 19.4247 53.3913 19.0497L50.1907 17.2653C50.01 17.1619 49.8035 17.1619 49.6228 17.2653L46.4221 19.0497C46.1124 19.2178 45.7769 19.3083 45.4542 19.3083L45.4155 19.3212ZM49.8809 15.649C50.2423 15.649 50.5908 15.7395 50.9134 15.9205L54.1141 17.7049C54.3335 17.8213 54.527 17.7308 54.5916 17.6791C54.669 17.6273 54.8239 17.4851 54.7852 17.2265L54.1399 13.244C54.0366 12.5845 54.2431 11.8863 54.7206 11.4079L57.4954 8.55028C57.6761 8.36926 57.6244 8.16237 57.5986 8.08479C57.5728 8.00721 57.4825 7.81325 57.2373 7.77446L53.5333 7.20553C52.8235 7.10209 52.2298 6.64953 51.9201 5.99008L50.2939 2.51183C50.1777 2.27909 49.9713 2.25323 49.8809 2.25323C49.7906 2.25323 49.5841 2.27909 49.4679 2.51183L47.8418 5.99008C47.545 6.6366 46.9384 7.08916 46.2286 7.20553L42.5246 7.77446C42.2665 7.81325 42.1761 8.00721 42.1503 8.08479C42.1245 8.16237 42.0729 8.36926 42.2536 8.56321L45.0283 11.4208C45.4929 11.8992 45.7124 12.5975 45.6091 13.2569L44.9638 17.2394C44.9251 17.498 45.08 17.6403 45.1574 17.692C45.2219 17.7437 45.4155 17.8342 45.6349 17.7179L48.8356 15.9335C49.1582 15.7525 49.5196 15.6619 49.8809 15.6619V15.649Z" fill="#1F1F1F"/>
<path d="M75.5636 25.6183L72.3629 27.4027C71.4595 27.9069 70.3883 27.1441 70.5561 26.1226L71.2014 22.14C71.2659 21.7133 71.1369 21.2737 70.8271 20.9634L68.0524 18.1058C67.3554 17.3817 67.7555 16.1662 68.7493 16.0111L72.4533 15.4421C72.905 15.3775 73.2921 15.0801 73.4857 14.6663L75.1119 11.1881C75.5507 10.2442 76.8929 10.2442 77.3446 11.1881L78.9707 14.6663C79.1643 15.0801 79.5515 15.3646 80.0032 15.4421L83.7072 16.0111C84.7009 16.1662 85.101 17.3817 84.4041 18.0928L81.6293 20.9504C81.3325 21.2608 81.1905 21.7004 81.2551 22.1271L81.9004 26.1096C82.0681 27.1311 80.984 27.894 80.0935 27.3897L76.8929 25.6053C76.4799 25.3726 75.9766 25.3726 75.5636 25.6053V25.6183Z" fill="white"/>
<path d="M71.7563 28.3336C71.3563 28.3336 70.9562 28.2173 70.6077 27.9716C69.9753 27.519 69.6527 26.7691 69.7817 25.9933L70.427 22.0107C70.4528 21.8297 70.4012 21.6358 70.2722 21.5065L67.4974 18.6489C66.9683 18.1058 66.7876 17.317 67.0328 16.6059C67.278 15.8818 67.8846 15.3646 68.6331 15.2611L72.3371 14.6922C72.5307 14.6663 72.6985 14.537 72.7759 14.356L74.4021 10.8777C74.7376 10.1666 75.4345 9.71402 76.2217 9.71402C77.009 9.71402 77.7059 10.1536 78.0415 10.8648L79.6676 14.3431C79.7451 14.5241 79.9128 14.6405 80.1064 14.6793L83.8104 15.2482C84.5589 15.3646 85.1655 15.8818 85.4107 16.5929C85.656 17.317 85.4753 18.0929 84.9461 18.6359L82.1714 21.4935C82.0423 21.6228 81.9778 21.8168 82.0165 21.9978L82.6618 25.9803C82.7908 26.7562 82.4682 27.5061 81.8358 27.9587C81.2034 28.3983 80.3904 28.45 79.7193 28.0621L76.5186 26.2777C76.3379 26.1743 76.1314 26.1743 75.9507 26.2777L72.7501 28.0621C72.4404 28.2302 72.1048 28.3207 71.7822 28.3207L71.7563 28.3336ZM76.2217 11.2527C76.1314 11.2527 75.9249 11.2786 75.8088 11.5113L74.1826 14.9896C73.8729 15.6361 73.2792 16.0887 72.5694 16.205L68.8654 16.774C68.6073 16.8128 68.5299 17.0067 68.4912 17.0843C68.4653 17.1619 68.4266 17.3688 68.5944 17.5627L71.3692 20.4203C71.8338 20.8987 72.0532 21.584 71.9499 22.2564L71.3046 26.2389C71.2659 26.4975 71.4208 26.6398 71.4982 26.6915C71.5628 26.7432 71.7563 26.8467 71.9757 26.7174L75.1764 24.933C75.8217 24.5709 76.6089 24.5709 77.2542 24.933L80.4549 26.7174C80.6743 26.8467 80.8679 26.7432 80.9324 26.6915C81.0098 26.6398 81.1647 26.4975 81.126 26.2389L80.4807 22.2564C80.3775 21.584 80.5839 20.8987 81.0614 20.4203L83.8362 17.5627C84.0169 17.3817 83.9653 17.1748 83.9395 17.0972C83.9136 17.0196 83.8233 16.8257 83.5781 16.7869L79.8741 16.218C79.1643 16.1145 78.5577 15.649 78.2609 15.0025L76.6347 11.5243C76.5186 11.2915 76.3121 11.2657 76.2217 11.2657V11.2527Z" fill="#1F1F1F"/>
<path d="M21.1396 25.7864L17.939 27.5708C17.0356 28.075 15.9643 27.3121 16.1321 26.2906L16.7774 22.3081C16.8419 21.8814 16.7129 21.4418 16.4032 21.1315L13.6284 18.2739C12.9315 17.5498 13.3316 16.3343 14.3253 16.1792L18.0293 15.6102C18.481 15.5456 18.8682 15.2482 19.0618 14.8344L20.6879 11.3562C21.1267 10.4122 22.4689 10.4122 22.9206 11.3562L24.5468 14.8344C24.7403 15.2482 25.1275 15.5326 25.5792 15.6102L29.2832 16.1792C30.2769 16.3343 30.677 17.5498 29.9801 18.2609L27.2054 21.1185C26.9085 21.4289 26.7665 21.8685 26.8311 22.2952L27.4764 26.2777C27.6441 27.2992 26.5601 28.0621 25.6696 27.5578L22.4689 25.7734C22.0559 25.5407 21.5526 25.5407 21.1396 25.7734V25.7864Z" fill="white"/>
<path d="M17.3324 28.5017C16.9323 28.5017 16.5322 28.3854 16.1838 28.1397C15.5514 27.6871 15.2287 26.9372 15.3578 26.1613L16.0031 22.1788C16.0289 21.9978 15.9773 21.8038 15.8482 21.6745L13.0734 18.8169C12.5443 18.2739 12.3636 17.4851 12.6089 16.7739C12.8541 16.0499 13.4606 15.5326 14.2092 15.4163L17.9131 14.8473C18.1067 14.8215 18.2745 14.6922 18.3519 14.5111L19.9781 11.0329C20.3136 10.3217 21.0106 9.86917 21.7978 9.86917C22.5851 9.86917 23.282 10.3088 23.6175 11.02L25.2436 14.4982C25.3211 14.6792 25.4889 14.7956 25.6825 14.8344L29.3865 15.4033C30.135 15.5197 30.7416 16.0369 30.9868 16.7481C31.232 17.4593 31.0513 18.248 30.5222 18.7911L27.7474 21.6487C27.6183 21.778 27.5538 21.9719 27.5925 22.153L28.2378 26.1355C28.3669 26.9113 28.0442 27.6613 27.4119 28.1138C26.7795 28.5534 25.9664 28.6052 25.2953 28.2173L22.0947 26.4329C21.914 26.3424 21.6946 26.3294 21.5268 26.4329L18.3261 28.2173C18.0164 28.3854 17.6808 28.4759 17.3582 28.4759L17.3324 28.5017ZM21.7978 11.4208C21.7075 11.4208 21.501 11.4467 21.3848 11.6794L19.7587 15.1577C19.4618 15.8042 18.8553 16.2567 18.1454 16.3731L14.4415 16.942C14.1833 16.9808 14.093 17.1748 14.0672 17.2524C14.0414 17.33 14.0027 17.5368 14.1704 17.7308L16.9452 20.5884C17.4098 21.0668 17.6292 21.7521 17.526 22.4245L16.8807 26.407C16.842 26.6656 16.9968 26.8079 17.0743 26.8596C17.1388 26.9113 17.3324 27.0147 17.5518 26.8854L20.7524 25.1011C21.3977 24.739 22.185 24.739 22.8303 25.1011L26.0309 26.8854C26.2503 27.0147 26.4439 26.9113 26.5084 26.8596C26.5859 26.8079 26.7407 26.6656 26.702 26.407L26.0567 22.4245C25.9535 21.765 26.16 21.0668 26.6375 20.5884L29.4123 17.7308C29.5929 17.5498 29.5413 17.3429 29.5155 17.2653C29.4897 17.1877 29.3994 16.9938 29.1542 16.955L25.4501 16.386C24.7403 16.2826 24.1467 15.83 23.8369 15.1706L22.2108 11.6923C22.0947 11.4596 21.8882 11.4337 21.7978 11.4337V11.4208Z" fill="#1F1F1F"/>
<path d="M89.5019 47.6515L86.3013 49.4359C85.3978 49.9402 84.3266 49.1773 84.4944 48.1558L85.1397 44.1733C85.2042 43.7466 85.0752 43.3069 84.7655 42.9966L81.9907 40.139C81.2937 39.4149 81.6938 38.1995 82.6876 38.0443L86.3916 37.4754C86.8433 37.4107 87.2305 37.1133 87.4241 36.6995L89.0502 33.2213C89.489 32.2774 90.8312 32.2774 91.2829 33.2213L92.909 36.6995C93.1026 37.1133 93.4898 37.3978 93.9415 37.4754L97.6455 38.0443C98.6392 38.1995 99.0393 39.4149 98.3424 40.1261L95.5676 42.9837C95.2708 43.294 95.1288 43.7336 95.1934 44.1603L95.8387 48.1429C96.0064 49.1644 94.9223 49.9272 94.0318 49.423L90.8312 47.6386C90.4182 47.4058 89.9149 47.4058 89.5019 47.6386V47.6515Z" fill="white"/>
<path d="M94.6255 50.3669C94.29 50.3669 93.9544 50.2764 93.6576 50.1083L90.4569 48.3239C90.2763 48.2204 90.0698 48.2204 89.8891 48.3239L86.6884 50.1083C86.0173 50.4832 85.2042 50.4445 84.5718 49.9919C83.9394 49.5393 83.6168 48.7894 83.7459 48.0136L84.3912 44.031C84.417 43.85 84.3654 43.6561 84.2363 43.5267L81.4616 40.6691C80.9324 40.1261 80.7517 39.3373 80.9969 38.6262C81.2421 37.9021 81.8487 37.3849 82.5972 37.2814L86.3013 36.7125C86.4948 36.6866 86.6626 36.5573 86.74 36.3763L88.3662 32.898C88.7017 32.1869 89.3986 31.7343 90.1859 31.7343C90.9731 31.7343 91.6701 32.1739 92.0056 32.8851L93.6318 36.3634C93.7092 36.5444 93.877 36.6608 94.0706 36.6995L97.7745 37.2685C98.5231 37.3849 99.1296 37.9021 99.3748 38.6132C99.6201 39.3244 99.4394 40.1131 98.9103 40.6562L96.1355 43.5138C96.0064 43.6431 95.9419 43.8371 95.9806 44.0181L96.6259 48.0006C96.755 48.7764 96.4323 49.5264 95.7999 49.979C95.4515 50.2246 95.0514 50.341 94.6513 50.341L94.6255 50.3669ZM90.1601 46.6947C90.5215 46.6947 90.8699 46.7852 91.2055 46.9662L94.4061 48.7506C94.6255 48.867 94.8191 48.7764 94.8836 48.7247C94.9611 48.673 95.1159 48.5308 95.0772 48.2722L94.4319 44.2896C94.3287 43.6173 94.5481 42.932 95.0127 42.4535L97.7875 39.5959C97.9681 39.4149 97.9165 39.208 97.8907 39.1304C97.8649 39.0529 97.7745 38.8589 97.5293 38.8201L93.8253 38.2512C93.1155 38.1477 92.5089 37.6823 92.2121 37.0357L90.586 33.5575C90.4698 33.3247 90.2633 33.2989 90.173 33.2989C90.0827 33.2989 89.8762 33.3247 89.76 33.5575L88.1339 37.0357C87.8241 37.6823 87.2305 38.1348 86.5206 38.2512L82.8167 38.8201C82.5585 38.8589 82.4811 39.0529 82.4424 39.1304C82.4166 39.208 82.3779 39.4149 82.5456 39.6089L85.3204 42.4665C85.785 42.9449 86.0044 43.6302 85.9011 44.3026L85.2558 48.2851C85.2171 48.5437 85.372 48.6859 85.4495 48.7377C85.5269 48.7894 85.7076 48.8799 85.927 48.7635L89.1276 46.9791C89.4502 46.7981 89.8116 46.7076 90.1601 46.7076V46.6947Z" fill="#1F1F1F"/>
<path d="M8.95648 49.591L5.75585 51.3754C4.85244 51.8797 3.78122 51.1168 3.949 50.0953L4.59429 46.1128C4.65882 45.6861 4.52979 45.2464 4.22005 44.9361L1.4453 42.0785C0.748386 41.3544 1.14844 40.139 2.14219 39.9838L5.84616 39.4149C6.29787 39.3502 6.68507 39.0528 6.87865 38.6391L8.5048 35.1608C8.9436 34.2169 10.2858 34.2169 10.7375 35.1608L12.3636 38.6391C12.5572 39.0528 12.9444 39.3373 13.3961 39.4149L17.1001 39.9838C18.0938 40.139 18.4939 41.3544 17.797 42.0656L15.0222 44.9232C14.7254 45.2335 14.5834 45.6731 14.648 46.0998L15.2933 50.0824C15.461 51.1039 14.3769 51.8668 13.4864 51.3625L10.2858 49.5781C9.87279 49.3454 9.36946 49.3454 8.95648 49.5781V49.591Z" fill="white"/>
<path d="M14.093 52.3064C13.7575 52.3064 13.4219 52.2159 13.1251 52.0478L9.92441 50.2634C9.74373 50.16 9.53723 50.16 9.35655 50.2634L6.15593 52.0478C5.48482 52.4228 4.67173 52.384 4.03935 51.9314C3.40696 51.4788 3.08433 50.7289 3.21339 49.9531L3.85869 45.9705C3.8845 45.7895 3.83288 45.5956 3.70382 45.4663L0.941951 42.6087C0.412811 42.0656 0.232148 41.2768 0.47736 40.5657C0.722571 39.8545 1.32913 39.3244 2.07767 39.208L5.78164 38.6391C5.97523 38.6132 6.143 38.4839 6.22044 38.3029L7.84659 34.8246C8.18214 34.1135 8.87906 33.6738 9.66632 33.6738C10.4536 33.6738 11.1505 34.1135 11.486 34.8246L13.1122 38.3029C13.1896 38.4839 13.3574 38.6003 13.551 38.6391L17.255 39.208C18.0035 39.3244 18.6101 39.8416 18.8553 40.5527C19.1005 41.2768 18.9198 42.0527 18.3906 42.5957L15.6159 45.4533C15.4868 45.5826 15.4223 45.7766 15.461 45.9576L16.1063 49.9401C16.2354 50.716 15.9128 51.4659 15.2804 51.9185C14.9319 52.1642 14.5318 52.2805 14.1317 52.2805L14.093 52.3064ZM9.6276 48.6342C9.98897 48.6342 10.3374 48.7247 10.6601 48.9057L13.8607 50.6901C14.0801 50.8065 14.2737 50.716 14.3382 50.6642C14.4157 50.6125 14.5705 50.4703 14.5318 50.2117L13.8865 46.2291C13.7833 45.5697 13.9898 44.8844 14.4673 44.393L17.242 41.5355C17.4227 41.3544 17.3711 41.1475 17.3453 41.07C17.3195 40.9924 17.2291 40.7984 16.9839 40.7596L13.2799 40.1907C12.5701 40.0873 11.9635 39.6347 11.6667 38.9753L10.0406 35.497C9.92441 35.2643 9.71794 35.2384 9.6276 35.2384C9.53726 35.2384 9.33076 35.2643 9.21461 35.497L7.58846 38.9753C7.29162 39.6218 6.68505 40.0743 5.97522 40.1907L2.27125 40.7596C2.01314 40.7984 1.92278 40.9924 1.89697 41.07C1.87116 41.1475 1.83246 41.3544 2.00024 41.5355L4.77499 44.393C5.2396 44.8844 5.45902 45.5697 5.35577 46.2291L4.71048 50.2117C4.67176 50.4703 4.82662 50.6125 4.90406 50.6642C4.96859 50.716 5.16217 50.8065 5.38157 50.6901L8.58223 48.9057C8.90488 48.7247 9.26623 48.6342 9.61468 48.6342H9.6276Z" fill="#1F1F1F"/>
<path d="M49.9197 77.9213C38.7948 77.9213 29.7736 68.8831 29.7736 57.7371V31.3464H70.0527V57.7371C70.0527 68.8831 61.0316 77.9213 49.9067 77.9213H49.9197Z" fill="white"/>
<path d="M49.9197 78.6972C38.3818 78.6972 28.9992 69.2968 28.9992 57.7371V31.3464C28.9992 30.9197 29.3477 30.5706 29.7736 30.5706H70.0527C70.4786 30.5706 70.8271 30.9197 70.8271 31.3464V57.7371C70.8271 69.2968 61.4446 78.6972 49.9067 78.6972H49.9197ZM30.548 32.1222V57.7371C30.548 68.4305 39.2336 77.1455 49.9197 77.1455C60.6057 77.1455 69.2913 68.4434 69.2913 57.7371V32.1222H30.5609H30.548Z" fill="#1F1F1F"/>
<path d="M49.2485 59.7543L46.0479 61.5386C45.1445 62.0429 44.0733 61.28 44.2411 60.2585L44.8864 56.276C44.9509 55.8493 44.8219 55.4097 44.5121 55.0994L41.7374 52.2418C41.0404 51.5177 41.4405 50.3022 42.4343 50.1471L46.1382 49.5781C46.5899 49.5135 46.9771 49.2161 47.1707 48.8023L48.7968 45.3241C49.2356 44.3801 50.5778 44.3801 51.0296 45.3241L52.6557 48.8023C52.8493 49.2161 53.2365 49.5005 53.6882 49.5781L57.3921 50.1471C58.3859 50.3022 58.786 51.5177 58.0891 52.2288L55.3143 55.0864C55.0175 55.3968 54.8755 55.8364 54.94 56.2631L55.5853 60.2456C55.7531 61.2671 54.669 62.03 53.7785 61.5257L50.5778 59.7413C50.1649 59.5086 49.6615 59.5086 49.2485 59.7413V59.7543Z" fill="white"/>
<path d="M54.3722 62.4696C54.0366 62.4696 53.7011 62.3791 53.4042 62.211L50.2036 60.4266C50.0229 60.3232 49.8164 60.3232 49.6357 60.4266L46.4351 62.211C45.7511 62.586 44.938 62.5472 44.3185 62.0946C43.6861 61.6421 43.3635 60.8921 43.4925 60.1163L44.1378 56.1338C44.1636 55.9528 44.112 55.7588 43.983 55.6295L41.2211 52.7719C40.692 52.2288 40.5113 51.4401 40.7565 50.7289C41.0017 50.0178 41.6083 49.4876 42.3568 49.3712L46.0608 48.8023C46.2544 48.7764 46.4222 48.6471 46.4996 48.4661L48.1257 44.9879C48.4613 44.2767 49.1582 43.8371 49.9455 43.8371C50.7327 43.8371 51.4296 44.2767 51.7652 44.9879L53.3913 48.4661C53.4688 48.6471 53.6366 48.7635 53.8301 48.8023L57.5341 49.3712C58.2827 49.4876 58.8892 50.0048 59.1344 50.716C59.3796 51.4272 59.199 52.2159 58.6698 52.759L55.895 55.6166C55.766 55.7459 55.7015 55.9398 55.7402 56.1208L56.3855 60.1034C56.5145 60.8792 56.1919 61.6292 55.5595 62.0817C55.2111 62.3274 54.811 62.4438 54.4109 62.4438L54.3722 62.4696ZM49.9068 58.7974C50.2681 58.7974 50.6166 58.8879 50.9392 59.069L54.1399 60.8533C54.3593 60.9697 54.5528 60.8792 54.6174 60.8275C54.6948 60.7758 54.8497 60.6335 54.811 60.3749L54.1657 56.3924C54.0624 55.7329 54.2689 55.0347 54.7464 54.5563L57.5212 51.6987C57.7019 51.5177 57.6503 51.3108 57.6245 51.2332C57.5987 51.1556 57.5083 50.9617 57.2631 50.9229L53.5591 50.3539C52.8493 50.2505 52.2556 49.7979 51.9459 49.1385L50.3197 45.6602C50.2165 45.4275 49.9971 45.4016 49.9068 45.4016C49.8164 45.4016 49.6099 45.4275 49.4938 45.6602L47.8676 49.1385C47.5579 49.785 46.9642 50.2376 46.2544 50.3539L42.5504 50.9229C42.2923 50.9617 42.202 51.1556 42.1762 51.2332C42.1503 51.3108 42.1116 51.5177 42.2794 51.6987L45.0541 54.5563C45.5187 55.0347 45.7382 55.72 45.6349 56.3924L44.9896 60.3749C44.9509 60.6335 45.1058 60.7758 45.1832 60.8275C45.2477 60.8792 45.4284 60.9697 45.6607 60.8533L48.8614 59.069C49.184 58.8879 49.5454 58.7974 49.8938 58.7974H49.9068Z" fill="#1F1F1F"/>
</svg>
