<svg width="74" height="63" viewBox="0 0 74 63" fill="none" xmlns="http://www.w3.org/2000/svg">
<path d="M38.1965 31.536C31.5654 32.8011 25.5498 36.7939 21.8669 41.8343C19.0477 45.6986 19.961 51.1344 23.8821 53.872C30.8805 58.7543 36.7571 61.5118 36.7571 61.5118C36.7571 61.5118 72.6127 44.7103 72.6127 20.625C72.6127 10.1883 64.0558 1.5405 53.4937 1.5405C46.2869 1.5405 40.023 5.48389 36.7671 11.2952C33.5111 5.48389 27.2373 1.5405 20.0404 1.5405C9.47829 1.5405 0.921387 10.1784 0.921387 20.625C0.921387 30.271 6.67893 38.7507 13.5781 45.4516L23.892 53.872" fill="white"/>
<path d="M36.7569 62.2332C36.6477 62.2332 36.5485 62.2134 36.4492 62.164C36.3896 62.1344 30.4336 59.3276 23.4749 54.465C23.4749 54.465 23.4749 54.465 23.4649 54.465C23.0778 54.1982 22.7204 53.9017 22.3829 53.5854L13.1113 46.0149C4.52462 37.6833 0.196533 29.1541 0.196533 20.6348C0.196533 9.72377 9.09094 0.838776 20.0303 0.838776C26.8301 0.838776 33.1337 4.28801 36.7569 9.92144C40.3901 4.28801 46.6937 0.838776 53.4836 0.838776C64.4229 0.838776 73.3173 9.71389 73.3173 20.6348C73.3173 30.7058 67.0237 41.093 55.1215 50.6699C46.1973 57.8549 37.1441 62.1245 37.0547 62.1739C36.9555 62.2233 36.8562 62.2431 36.747 62.2431L36.7569 62.2332ZM24.3087 53.3087C30.2648 57.4596 35.4664 60.0984 36.7569 60.7211C40.2313 59.0113 71.8879 42.8127 71.8879 20.6249C71.8879 10.4947 63.6288 2.26196 53.4836 2.26196C46.7929 2.26196 40.6284 5.85944 37.3823 11.651C37.1242 12.1056 36.3797 12.1056 36.1315 11.651C32.8855 5.85944 26.711 2.26196 20.0303 2.26196C9.88509 2.26196 1.62599 10.5045 1.62599 20.6249C1.62599 28.739 5.8151 36.9223 14.0643 44.9376L19.9707 49.7507C19.8218 49.306 19.7126 48.8514 19.6332 48.3868C19.2163 45.9062 19.802 43.4354 21.2811 41.4093C25.2121 36.0328 31.4858 32.0697 38.0573 30.8244C38.4445 30.7453 38.8217 31.0023 38.8912 31.3877C38.9607 31.7732 38.7125 32.1488 38.3254 32.2179C32.1013 33.4039 26.165 37.1497 22.4425 42.2395C21.1917 43.9493 20.6954 46.0445 21.0527 48.1398C21.3307 49.8298 22.1348 51.332 23.3458 52.4983L24.3187 53.2889L24.3087 53.3087Z" fill="#1F1F1F"/>
</svg>
