<svg width="40" height="11" viewBox="0 0 40 11" fill="none" xmlns="http://www.w3.org/2000/svg">
<path d="M14.1041 2.87515H12.6176C12.3242 2.87515 12.3046 3.30544 12.2851 3.51081C11.8352 2.84581 11.18 2.72845 10.4368 2.72845C8.52 2.72845 7.06287 4.41052 7.06287 6.25883C7.06287 7.78442 8.01147 8.77214 9.53706 8.77214C10.2412 8.77214 11.1115 8.39074 11.6103 7.84309C11.5712 7.96045 11.5321 8.21471 11.5321 8.33207C11.5321 8.5081 11.6103 8.64501 11.7863 8.64501H13.1261C13.3413 8.64501 13.5173 8.42008 13.5564 8.19515L14.3485 3.16853C14.3779 3.03162 14.2605 2.87515 14.1041 2.87515ZM10.339 7.20743C9.62508 7.20743 9.08721 6.7967 9.08721 6.0339C9.08721 5.0853 9.83044 4.31272 10.779 4.31272C11.5027 4.31272 12.0504 4.76258 12.0504 5.52537C12.0602 6.48376 11.2974 7.20743 10.339 7.20743Z" fill="#1F1F1F"/>
<path d="M22.2797 3.15874C22.2797 3.02183 22.1623 2.88492 22.0254 2.88492H20.5291C20.3922 2.88492 20.2553 2.96315 20.1771 3.08051L18.1038 6.12191L17.2433 3.19786C17.1846 3.02183 17.0086 2.88492 16.813 2.88492H15.3558C15.2189 2.88492 15.1016 3.02183 15.1016 3.15874C15.1016 3.25654 16.6272 7.5986 16.7543 8.00934C16.5391 8.30272 15.1505 10.239 15.1505 10.4738C15.1505 10.6107 15.2678 10.728 15.4047 10.728H16.901C17.0379 10.7182 17.1748 10.64 17.253 10.5227L22.2308 3.28588C22.2797 3.24676 22.2797 3.20764 22.2797 3.15874Z" fill="#1F1F1F"/>
<path d="M4.82339 0H1.69397C1.49839 0 1.3028 0.156471 1.28324 0.371619L0.00213267 8.34185C-0.0174262 8.49832 0.0999268 8.6548 0.256398 8.6548H1.74287C1.95802 8.6548 2.15361 8.42987 2.17317 8.20494L2.52523 6.1317C2.60346 5.57427 3.55207 5.76008 3.93346 5.76008C6.16317 5.76008 7.53229 4.43008 7.53229 2.18081C7.53229 0.547648 6.26097 0 4.82339 0ZM5.16567 2.90449C5.0092 3.89221 4.3442 4.00957 3.48361 4.00957L2.84795 4.02912L3.18045 1.94611C3.20001 1.8092 3.31736 1.73096 3.43471 1.73096H3.80633C4.6767 1.74074 5.3417 1.85809 5.16567 2.90449Z" fill="#1F1F1F"/>
<path d="M27.0032 0H23.9031C23.6879 0 23.4923 0.156471 23.4728 0.371619L22.2112 8.34185C22.1917 8.49832 22.309 8.6548 22.4655 8.6548H24.0693C24.2258 8.6548 24.3432 8.53744 24.3823 8.40053L24.7343 6.1317C24.8126 5.57427 25.7612 5.76008 26.1426 5.76008C28.3625 5.76008 29.7316 4.43008 29.7316 2.18081C29.7121 0.547648 28.4407 0 27.0032 0ZM25.6732 4.01935L25.0473 4.0389L25.3798 1.95589C25.3993 1.81897 25.4873 1.74074 25.634 1.74074H25.9861C26.6511 1.74074 27.3943 1.77986 27.4041 2.61111C27.3846 3.78464 26.6902 4.01935 25.6732 4.01935Z" fill="#1F1F1F"/>
<path d="M39.7457 0H38.2983C38.181 0 38.0636 0.097794 38.044 0.215147L36.7825 8.34185L36.7629 8.38097C36.7629 8.51788 36.8803 8.6548 37.0368 8.6548H38.3276C38.5232 8.6548 38.7188 8.42987 38.7384 8.20494L39.9999 0.303163V0.273824C39.9902 0.117353 39.8728 0 39.7457 0Z" fill="#1F1F1F"/>
<path d="M36.2838 2.87515H34.7973C34.5039 2.87515 34.4844 3.30544 34.4648 3.51081C34.0345 2.84581 33.3695 2.72845 32.6165 2.72845C30.6997 2.72845 29.2426 4.41052 29.2426 6.25883C29.2426 7.78442 30.1912 8.77214 31.7168 8.77214C32.4405 8.77214 33.3206 8.39074 33.79 7.84309C33.7705 7.96045 33.7118 8.21471 33.7118 8.33207C33.7118 8.5081 33.79 8.64501 33.9661 8.64501H35.3156C35.5308 8.64501 35.7068 8.42008 35.7459 8.19515L36.5381 3.16853C36.5576 3.03162 36.4403 2.87515 36.2838 2.87515ZM32.5383 7.20743C31.8244 7.20743 31.2767 6.7967 31.2767 6.0339C31.2767 5.07552 32.02 4.31272 32.9686 4.31272C33.6923 4.31272 34.2399 4.76258 34.2301 5.52537C34.2301 6.49353 33.4771 7.20743 32.5383 7.20743Z" fill="#1F1F1F"/>
</svg>
