<svg width="51" height="43" viewBox="0 0 51 43" fill="none" xmlns="http://www.w3.org/2000/svg">
<path d="M26.7374 21.592C22.1705 22.4671 18.0274 25.2292 15.491 28.7159C13.5494 31.3891 14.1783 35.1493 16.8789 37.043C21.6988 40.4204 25.7461 42.3278 25.7461 42.3278C25.7461 42.3278 50.4404 30.7054 50.4404 14.0443C50.4404 6.82467 44.5471 0.842529 37.2728 0.842529C32.3094 0.842529 27.9954 3.57039 25.7529 7.59039C23.5105 3.57039 19.1897 0.842529 14.233 0.842529C6.95876 0.842529 1.06549 6.81784 1.06549 14.0443C1.06549 20.7169 5.0308 26.5828 9.78233 31.2181L16.8857 37.043" fill="white"/>
<path d="M25.7461 42.827C25.6709 42.827 25.6025 42.8133 25.5342 42.7791C25.4931 42.7586 21.3911 40.817 16.5985 37.4533C16.5985 37.4533 16.5986 37.4533 16.5917 37.4533C16.3251 37.2687 16.079 37.0636 15.8465 36.8448L9.461 31.6079C3.54722 25.8445 0.566406 19.9444 0.566406 14.0512C0.566406 6.5034 6.69212 0.357178 14.2262 0.357178C18.9094 0.357178 23.2507 2.7432 25.7461 6.64014C28.2483 2.7432 32.5897 0.357178 37.266 0.357178C44.8001 0.357178 50.9258 6.49656 50.9258 14.0512C50.9258 21.0178 46.5913 28.2032 38.3941 34.828C32.2478 39.7983 26.0127 42.7518 25.9512 42.786C25.8828 42.8201 25.8145 42.8338 25.7393 42.8338L25.7461 42.827ZM17.1728 36.6534C21.2749 39.5248 24.8573 41.3502 25.7461 41.781C28.139 40.5982 49.9413 29.3928 49.9413 14.0443C49.9413 7.03667 44.2531 1.34167 37.266 1.34167C32.658 1.34167 28.4124 3.83024 26.1768 7.83657C25.9991 8.15106 25.4863 8.15106 25.3154 7.83657C23.0798 3.83024 18.8273 1.34167 14.2262 1.34167C7.23906 1.34167 1.5509 7.04351 1.5509 14.0443C1.5509 19.6573 4.436 25.3181 10.1173 30.8627L14.1852 34.1922C14.0826 33.8845 14.0074 33.57 13.9527 33.2487C13.6656 31.5327 14.069 29.8235 15.0876 28.422C17.795 24.7028 22.1158 21.9613 26.6417 21.0998C26.9083 21.0451 27.1681 21.2229 27.216 21.4895C27.2639 21.7562 27.0929 22.016 26.8263 22.0638C22.5397 22.8842 18.4513 25.4753 15.8875 28.9963C15.0261 30.179 14.6843 31.6284 14.9304 33.0778C15.1218 34.2469 15.6756 35.2861 16.5097 36.0928L17.1797 36.6397L17.1728 36.6534Z" fill="#1F1F1F"/>
</svg>
