<svg width="101" height="32" viewBox="0 0 101 32" fill="none" xmlns="http://www.w3.org/2000/svg">
<path d="M3.09998 8.38029C2.90125 8.58731 2.72241 8.76475 2.57336 8.91262C2.42432 9.06049 2.29515 9.16893 2.18586 9.24779L3.39806 10.3125L2.92113 10.8053L-0.0100098 8.0254L0.347688 7.6508C0.576217 7.84796 0.774938 7.96625 0.953787 7.99583C1.13264 8.0254 1.30155 7.99583 1.46053 7.92682C1.6195 7.85782 1.78842 7.71981 1.94739 7.55222C2.11631 7.38463 2.29515 7.19733 2.48394 7.00017L7.23337 2.06133C7.38242 1.9036 7.53146 1.75573 7.67056 1.62757C7.80967 1.49942 7.93883 1.37127 8.068 1.27269L7.18369 0.533338L7.67056 0.0305786L13.0062 5.07787L11.1482 7.13819L10.7706 6.77344C11.0985 6.43827 11.3171 6.12281 11.4363 5.82707C11.5556 5.54119 11.5953 5.26517 11.5655 5.00886C11.5357 4.75255 11.4363 4.51596 11.2873 4.29909C11.1382 4.08221 10.9395 3.86533 10.7209 3.66817L9.86643 2.89925C9.64784 2.70209 9.44911 2.59366 9.27027 2.55423C9.09142 2.52465 8.91257 2.55423 8.75359 2.63309C8.58468 2.71196 8.4257 2.84011 8.25679 3.00769C8.08788 3.17528 7.91896 3.35272 7.73018 3.54988L5.83239 5.52147L7.82954 7.41421L8.69397 6.34955L9.20071 6.83258L6.89555 9.23793L6.51798 8.88305C6.73657 8.65631 6.88561 8.45916 6.97504 8.29157C7.06446 8.12398 7.09427 7.96626 7.08433 7.80853C7.0744 7.6508 7.00484 7.51279 6.90548 7.36492C6.80612 7.21705 6.65708 7.05932 6.4683 6.89174C6.41862 6.84245 6.359 6.79315 6.30932 6.73401C6.25964 6.67486 5.95162 6.42841 5.41508 5.96509L3.10991 8.36057L3.09998 8.38029Z" fill="#1F1F1F"/>
<path d="M14.9933 11.18C14.8343 11.0617 14.6456 10.9631 14.4369 10.9138C14.2183 10.8547 13.9898 10.8349 13.7314 10.8349C13.483 10.8349 13.2148 10.8842 12.9465 10.9532C12.6782 11.0222 12.4099 11.1208 12.1417 11.249L9.84645 14.3838C9.71728 14.5514 9.60798 14.6993 9.50862 14.8274C9.40926 14.9556 9.29003 15.0837 9.16086 15.2119L9.99549 15.7639L9.60798 16.2864L6.98486 14.374L7.26307 13.9994C7.46179 14.1374 7.64064 14.2162 7.79962 14.2064C7.9586 14.2064 8.10764 14.1472 8.25668 14.0486C8.40572 13.9501 8.55476 13.8022 8.69386 13.6149C8.84291 13.4276 9.00188 13.2206 9.17079 12.9938L11.3269 10.0857C11.4263 9.95758 11.5256 9.81957 11.625 9.69141C11.7244 9.56326 11.8436 9.4351 11.9827 9.30695L11.0487 8.6859L11.4362 8.16342L11.8337 8.4493C12.0125 8.58732 12.1715 8.6859 12.3106 8.75491C12.4497 8.82391 12.5689 8.8732 12.6683 8.90277C12.7676 8.93234 12.867 8.9422 12.9564 8.9422C13.0459 8.9422 13.1253 8.94221 13.2048 8.93235L13.5725 9.19851C13.483 9.33652 13.3737 9.51397 13.2446 9.72098C13.1154 9.928 12.9266 10.1843 12.708 10.4998C12.9167 10.411 13.1651 10.342 13.4334 10.2927C13.7016 10.2435 13.9798 10.2237 14.2581 10.2336C14.5363 10.2435 14.8145 10.2927 15.0927 10.3618C15.3709 10.4406 15.6193 10.5589 15.8478 10.7265C15.9671 10.8152 16.0664 10.9138 16.1558 11.0222C16.2453 11.1307 16.3049 11.249 16.3347 11.3771C16.3645 11.5053 16.3744 11.6334 16.3446 11.7714C16.3148 11.9095 16.2552 12.0475 16.1558 12.1855C16.1161 12.2446 16.0565 12.3038 15.977 12.3531C15.8975 12.4024 15.818 12.4418 15.7187 12.4714C15.6193 12.5009 15.5199 12.5009 15.4106 12.4812C15.3013 12.4615 15.192 12.4122 15.0728 12.3334C14.9735 12.2643 14.9039 12.1756 14.8642 12.0869C14.8145 11.9883 14.7946 11.8897 14.7847 11.7912C14.7847 11.6926 14.7946 11.5841 14.8343 11.4856C14.8741 11.387 14.9337 11.2884 15.0231 11.1997L14.9933 11.18Z" fill="#1F1F1F"/>
<path d="M21.7698 18.1988L16.8316 15.5766C16.5335 16.1089 16.3049 16.6117 16.146 17.0849C15.987 17.5679 15.9174 18.0115 15.9373 18.4157C15.9572 18.8199 16.0565 19.1945 16.2553 19.5198C16.454 19.8451 16.7521 20.1211 17.1594 20.3479C17.378 20.4662 17.6165 20.5648 17.8748 20.6239C18.1332 20.6831 18.4015 20.7323 18.6598 20.7422C18.9281 20.7521 19.1864 20.7422 19.4447 20.6929C19.7031 20.6535 19.9316 20.5746 20.1403 20.476L20.329 20.9394C19.9813 21.1267 19.6236 21.245 19.256 21.3041C18.8883 21.3632 18.5406 21.383 18.2027 21.3633C17.8649 21.3435 17.537 21.2844 17.2389 21.1858C16.9309 21.0971 16.6626 20.9788 16.4341 20.8506C15.9572 20.5845 15.5597 20.2592 15.2418 19.855C14.9238 19.4607 14.7052 19.0171 14.5761 18.5242C14.4568 18.0411 14.427 17.5186 14.5065 16.9764C14.586 16.4343 14.7748 15.8822 15.0927 15.3203C15.361 14.8373 15.7088 14.4134 16.1261 14.0683C16.5434 13.7135 17.0005 13.4572 17.4973 13.2896C17.9941 13.122 18.5207 13.053 19.0572 13.0826C19.6037 13.122 20.1303 13.2797 20.6569 13.5656C21.0444 13.7726 21.3723 14.0388 21.6406 14.3542C21.9089 14.6697 22.1076 15.0246 22.2268 15.4189C22.3461 15.8132 22.3659 16.247 22.3063 16.7103C22.2467 17.1736 22.0679 17.6665 21.7797 18.1791L21.7698 18.1988ZM20.3688 14.1472C19.8223 13.8515 19.2858 13.7627 18.7592 13.881C18.2325 13.9993 17.7059 14.3838 17.1992 15.0246L20.7364 16.9764C20.8755 16.73 20.9749 16.4836 21.0643 16.2075C21.1438 15.9414 21.1736 15.6752 21.1637 15.4189C21.1537 15.1626 21.0842 14.926 20.955 14.6993C20.8259 14.4725 20.6371 14.2852 20.3589 14.1374L20.3688 14.1472Z" fill="#1F1F1F"/>
<path d="M30.0365 21.4717L24.7803 19.579C24.5618 20.1409 24.4028 20.6732 24.3134 21.176C24.2239 21.6689 24.2239 22.1223 24.2935 22.5265C24.363 22.9307 24.522 23.2757 24.7704 23.5714C25.0188 23.8672 25.3566 24.0939 25.7839 24.2615C26.0124 24.3502 26.2608 24.4094 26.5291 24.4389C26.7974 24.4685 27.0656 24.4685 27.324 24.4389C27.5922 24.4192 27.8506 24.3601 28.099 24.2812C28.3474 24.2024 28.566 24.0939 28.7548 23.9756L29.0032 24.4094C28.6852 24.6361 28.3474 24.8135 27.9996 24.922C27.6519 25.0304 27.3041 25.0994 26.9663 25.129C26.6285 25.1586 26.3006 25.1389 25.9826 25.0896C25.6647 25.0403 25.3864 24.9713 25.138 24.8727C24.6214 24.6755 24.1842 24.4094 23.8165 24.0545C23.4489 23.6996 23.1608 23.2954 22.972 22.8321C22.7832 22.3688 22.6838 21.866 22.6838 21.314C22.6838 20.7619 22.7931 20.1902 23.0316 19.5888C23.2303 19.0663 23.5085 18.6129 23.8762 18.2087C24.2339 17.8045 24.6512 17.4792 25.1182 17.2426C25.5852 17.006 26.0919 16.8582 26.6384 16.8187C27.1849 16.7793 27.7314 16.8582 28.2977 17.075C28.7051 17.2328 29.0727 17.4496 29.3807 17.7158C29.6987 17.9918 29.9372 18.3073 30.1061 18.6819C30.275 19.0565 30.3644 19.4804 30.3644 19.9437C30.3644 20.4169 30.265 20.9196 30.0465 21.4717H30.0365ZM28.0692 17.6567C27.4929 17.4398 26.9464 17.4201 26.4397 17.6172C25.9329 17.8144 25.4759 18.2678 25.0586 18.9776L28.8442 20.4169C28.9436 20.1606 29.0131 19.8944 29.0528 19.6085C29.0926 19.3325 29.0926 19.0663 29.0429 18.81C28.9932 18.5636 28.8939 18.327 28.7349 18.1298C28.5759 17.9228 28.3573 17.7651 28.0692 17.6567Z" fill="#1F1F1F"/>
<path d="M36.3858 27.9188L35.571 27.8005L35.9784 24.4685L36.5845 24.5573C36.5448 25.0206 36.5845 25.4445 36.7038 25.8191C36.823 26.1937 37.0018 26.519 37.2403 26.795C37.4788 27.071 37.7669 27.2879 38.1147 27.4654C38.4624 27.6428 38.84 27.7512 39.2573 27.8202C39.5653 27.8695 39.8634 27.8695 40.1516 27.8202C40.4397 27.7808 40.698 27.6921 40.9266 27.5541C41.1551 27.4161 41.3538 27.2386 41.5128 27.0119C41.6718 26.7852 41.7711 26.519 41.8208 26.2035C41.8804 25.8191 41.8407 25.4839 41.7115 25.1882C41.5824 24.8924 41.3936 24.6164 41.1452 24.3601C40.8968 24.1038 40.6086 23.8672 40.2807 23.6503C39.9528 23.4236 39.615 23.2067 39.2673 22.98C38.9195 22.7532 38.5916 22.5166 38.2637 22.2801C37.9358 22.0336 37.6477 21.7674 37.4092 21.4717C37.1708 21.176 36.9919 20.8506 36.8727 20.4958C36.7534 20.1409 36.7336 19.7268 36.8031 19.2635C36.8329 19.0861 36.8826 18.8988 36.9522 18.7016C37.0217 18.5045 37.1211 18.3073 37.2502 18.12C37.3794 17.9327 37.5284 17.7552 37.7172 17.5877C37.906 17.4201 38.1246 17.2821 38.383 17.1736C38.6413 17.0652 38.9394 16.9863 39.2772 16.9469C39.615 16.9075 39.9926 16.9173 40.4198 16.9863C40.6285 17.0159 40.8372 17.0652 41.0657 17.1243C41.2942 17.1835 41.5227 17.2623 41.7513 17.3609C41.9798 17.4595 42.2083 17.5778 42.4269 17.7158C42.6455 17.8538 42.8542 18.0214 43.043 18.2087L43.0827 17.5285L43.8776 17.6468L43.3609 21.0675L42.7946 20.9788C42.8244 20.5943 42.8045 20.2197 42.7449 19.855C42.6853 19.4902 42.5462 19.1452 42.3574 18.8396C42.1686 18.534 41.9202 18.2679 41.6022 18.0608C41.2942 17.844 40.9067 17.706 40.4397 17.6369C40.1118 17.5877 39.8137 17.5975 39.5455 17.6567C39.2772 17.7158 39.0487 17.8243 38.8599 17.9623C38.6612 18.1101 38.5121 18.2777 38.383 18.4946C38.2637 18.7016 38.1842 18.9283 38.1445 19.1748C38.0948 19.5297 38.1345 19.855 38.2637 20.1409C38.3929 20.4268 38.5916 20.6929 38.84 20.9394C39.0884 21.1858 39.3865 21.4224 39.7144 21.6393C40.0423 21.8562 40.39 22.0829 40.7378 22.3096C41.0856 22.5364 41.4234 22.773 41.7513 23.0194C42.0792 23.2659 42.3673 23.5419 42.6058 23.8376C42.8442 24.1334 43.033 24.4685 43.1523 24.8333C43.2715 25.198 43.3013 25.6121 43.2317 26.0754C43.1622 26.5091 43.0231 26.8936 42.8045 27.2288C42.5859 27.5639 42.2978 27.84 41.95 28.0568C41.6022 28.2737 41.1849 28.4216 40.698 28.5004C40.2112 28.5793 39.6846 28.5793 39.0983 28.4906C38.8599 28.4512 38.6214 28.4019 38.383 28.3329C38.1345 28.2639 37.906 28.1751 37.6676 28.0765C37.439 27.978 37.2105 27.8597 37.0018 27.7217C36.7932 27.5837 36.5945 27.4358 36.4255 27.2781L36.4057 27.9583L36.3858 27.9188Z" fill="#1F1F1F"/>
<path d="M45.9741 19.1255C45.9741 18.9579 45.9741 18.8002 45.9741 18.6523C45.9741 18.4946 45.984 18.3171 46.0039 18.1101L44.8811 18.189V17.5285C45.2189 17.5285 45.5071 17.5088 45.7356 17.4792C45.9641 17.4496 46.1529 17.42 46.292 17.3708C46.4311 17.3215 46.5504 17.282 46.6299 17.2327C46.7093 17.1835 46.7789 17.1243 46.8484 17.075H47.3055L47.385 21.8759C47.5539 21.728 47.7526 21.59 47.9513 21.4618C48.16 21.3337 48.3687 21.2154 48.5972 21.1168C48.8257 21.0182 49.0542 20.9393 49.2828 20.8901C49.5212 20.8309 49.7498 20.8013 49.9783 20.8013C50.4354 20.8013 50.8328 20.8605 51.1706 20.9985C51.5085 21.1365 51.7767 21.3435 51.9953 21.6294C52.2139 21.9153 52.3729 22.28 52.4822 22.7236C52.5915 23.1672 52.6511 23.6897 52.671 24.2911L52.7306 27.2287C52.7306 27.4358 52.7306 27.6231 52.7306 27.7906C52.7306 27.9484 52.7107 28.1258 52.6809 28.3033L53.6844 28.2441V28.8947L50.4552 28.944V28.4708C50.6937 28.4708 50.8725 28.4215 51.0017 28.323C51.1309 28.2244 51.2203 28.0962 51.27 27.9188C51.3197 27.7413 51.3495 27.5442 51.3594 27.3076C51.3594 27.071 51.3594 26.8147 51.3594 26.5288L51.3197 24.3305C51.2998 23.4236 51.1508 22.7434 50.8527 22.2997C50.5546 21.8561 50.0876 21.6393 49.4616 21.6491C49.2828 21.6491 49.094 21.6787 48.8853 21.7378C48.6866 21.797 48.4978 21.866 48.319 21.9547C48.1401 22.0434 47.9712 22.1519 47.8222 22.2702C47.6632 22.3885 47.534 22.5166 47.4148 22.6645L47.4943 27.3273C47.4943 27.5343 47.4943 27.7216 47.4943 27.8892C47.4943 28.0568 47.4645 28.2244 47.4446 28.4018L48.4481 28.3427V28.9933L45.2189 29.0426V28.5694C45.4574 28.5694 45.6362 28.5201 45.7654 28.4215C45.8946 28.323 45.984 28.1948 46.0436 28.0174C46.1032 27.8498 46.133 27.6428 46.133 27.4062C46.133 27.1696 46.133 26.9133 46.133 26.6274L46.0138 19.1649L45.9741 19.1255Z" fill="#1F1F1F"/>
<path d="M55.7808 22.5856C55.761 22.4181 55.751 22.2603 55.7411 22.1125C55.7311 21.9547 55.7212 21.7773 55.7311 21.5604L54.6183 21.7477L54.5388 21.0872C54.8866 21.0478 55.1648 20.9985 55.3933 20.9492C55.6218 20.8999 55.8007 20.8506 55.9398 20.7915C56.0789 20.7323 56.1882 20.6732 56.2578 20.614C56.3273 20.5549 56.3969 20.4958 56.4465 20.4366L56.9036 20.3873L57.6488 26.7161C57.6786 26.9232 57.6886 27.1105 57.7084 27.2682C57.7184 27.4259 57.7283 27.6034 57.7084 27.7808L58.702 27.6231L58.7815 28.2638L55.5622 28.6384L55.5026 28.1751C55.7411 28.1455 55.9199 28.0765 56.0392 27.9681C56.1584 27.8597 56.2279 27.7217 56.2677 27.5442C56.3074 27.3668 56.3074 27.1696 56.2876 26.933C56.2677 26.6964 56.2379 26.4401 56.2081 26.1542L55.7808 22.5856ZM56.7546 17.8932C56.7645 18.0214 56.7546 18.1397 56.7248 18.258C56.685 18.3763 56.6353 18.4847 56.5658 18.5734C56.4962 18.6622 56.4167 18.741 56.3174 18.8002C56.218 18.8593 56.1187 18.8889 55.9994 18.9086C55.8901 18.9185 55.7709 18.9086 55.6715 18.879C55.5622 18.8396 55.4629 18.7903 55.3734 18.7115C55.284 18.6326 55.2145 18.5439 55.1549 18.4354C55.0952 18.327 55.0654 18.2087 55.0456 18.0805C55.0257 17.9524 55.0456 17.8242 55.0754 17.7059C55.1052 17.5876 55.1549 17.4792 55.2244 17.3806C55.294 17.2821 55.3734 17.2032 55.4728 17.144C55.5722 17.0849 55.6815 17.0455 55.8007 17.0356C55.9199 17.0257 56.0292 17.0356 56.1385 17.075C56.2478 17.1145 56.3372 17.1736 56.4267 17.2426C56.5161 17.3215 56.5856 17.4102 56.6453 17.5285C56.7049 17.6468 56.7347 17.7552 56.7546 17.8932Z" fill="#1F1F1F"/>
<path d="M60.2322 22.0336C60.1925 21.8759 60.1527 21.7083 60.1229 21.5407C60.0931 21.3731 60.0633 21.2055 60.0534 21.0182L58.9703 21.3337L58.8213 20.6929C59.1591 20.6141 59.4274 20.5352 59.636 20.4662C59.8447 20.3972 60.0037 20.3183 60.1229 20.2493C60.2421 20.1803 60.3316 20.1113 60.3912 20.0522C60.4508 19.993 60.5005 19.924 60.5402 19.855L60.9973 19.7466C61.0271 19.8451 61.0668 19.9536 61.1165 20.0916C61.1563 20.2197 61.2059 20.3775 61.2556 20.5549C61.3749 20.3873 61.5239 20.2197 61.6829 20.062C61.8419 19.9043 62.0207 19.7564 62.2095 19.6283C62.3983 19.5001 62.597 19.3818 62.8056 19.2931C63.0143 19.2044 63.223 19.1255 63.4416 19.0762C63.8887 18.9678 64.3358 18.9579 64.7929 19.0368C65.2499 19.1157 65.6672 19.2832 66.0547 19.5297C66.4422 19.786 66.79 20.1212 67.0881 20.5549C67.3862 20.9788 67.6048 21.4914 67.7538 22.0928C67.8631 22.5265 67.9028 22.9504 67.9028 23.3546C67.9028 23.7588 67.8432 24.1432 67.7439 24.508C67.6445 24.8727 67.5054 25.2079 67.3166 25.5233C67.1378 25.8388 66.9192 26.1148 66.6708 26.3613C66.4224 26.6077 66.1442 26.8147 65.8361 26.9922C65.5281 27.1598 65.2002 27.2879 64.8525 27.3766C64.1371 27.5442 63.4813 27.5245 62.8851 27.3076L63.4813 29.851C63.531 30.058 63.5707 30.2354 63.6005 30.3932C63.6303 30.5509 63.6601 30.7185 63.6701 30.9058L64.6339 30.6298L64.7829 31.2607L61.6233 32L61.514 31.5466C61.7524 31.4874 61.9213 31.3987 62.0207 31.2804C62.1201 31.1621 62.1797 31.0142 62.1896 30.8269C62.1995 30.6495 62.1896 30.4425 62.1399 30.2157C62.0903 29.989 62.0406 29.7327 61.981 29.4567L60.2421 22.0336H60.2322ZM63.064 19.9536C62.8851 19.993 62.7162 20.062 62.5572 20.1507C62.3983 20.2395 62.2492 20.338 62.1101 20.4563C61.971 20.5746 61.8518 20.6929 61.7326 20.8309C61.6133 20.969 61.5239 21.107 61.4444 21.245C61.4444 21.2844 61.4643 21.3337 61.4842 21.383C61.504 21.4323 61.5239 21.521 61.5537 21.6491C61.5835 21.7773 61.6233 21.9547 61.6829 22.1815C61.7425 22.4082 61.812 22.7138 61.9015 23.0983C61.9909 23.4827 62.1002 23.9559 62.2393 24.5277C62.3685 25.0994 62.5374 25.7895 62.7262 26.5979C63.0242 26.726 63.3422 26.8049 63.68 26.8443C64.0079 26.8739 64.3457 26.8443 64.6836 26.7753C65.0512 26.6866 65.3592 26.5289 65.6076 26.2824C65.856 26.036 66.0448 25.7402 66.1839 25.3755C66.3131 25.0107 66.3826 24.6065 66.3926 24.1531C66.4025 23.6996 66.3429 23.2166 66.2237 22.704C66.1243 22.2899 65.9852 21.8956 65.7964 21.521C65.6176 21.1464 65.389 20.8309 65.1307 20.5648C64.8723 20.2986 64.5643 20.1113 64.2265 19.993C63.8887 19.8747 63.5012 19.8649 63.0839 19.9634L63.064 19.9536Z" fill="#1F1F1F"/>
<path d="M69.5623 19.579C69.5027 19.4311 69.4331 19.2734 69.3735 19.1156C69.3139 18.9579 69.2642 18.7903 69.2245 18.6129L68.211 19.0959L67.9526 18.4847C68.2706 18.3566 68.5289 18.2383 68.7177 18.1298C68.9065 18.0313 69.0555 17.9327 69.1648 17.844C69.2741 17.7552 69.3437 17.6764 69.3934 17.6074C69.443 17.5384 69.4828 17.4595 69.5126 17.3905L69.9398 17.2131C69.9895 17.3018 70.0491 17.4102 70.1088 17.5384C70.1684 17.6665 70.2379 17.8045 70.3274 17.9721C70.4267 17.7848 70.536 17.5975 70.6751 17.4102C70.8142 17.2328 70.9633 17.0553 71.1322 16.8976C71.3011 16.7399 71.4799 16.6019 71.6687 16.4737C71.8575 16.3456 72.0562 16.2371 72.255 16.1582C72.6822 15.9808 73.1194 15.9019 73.5864 15.9118C74.0434 15.9118 74.4906 16.0202 74.9079 16.2075C75.3252 16.3948 75.7326 16.6807 76.0903 17.0553C76.4579 17.4299 76.756 17.9031 76.9845 18.465C77.1534 18.8791 77.2727 19.2832 77.3323 19.6874C77.3919 20.0916 77.4018 20.476 77.3621 20.8506C77.3223 21.2253 77.2329 21.5801 77.1037 21.9153C76.9746 22.2505 76.8057 22.5659 76.597 22.842C76.3883 23.118 76.1499 23.3743 75.8717 23.5912C75.5935 23.808 75.2954 23.9855 74.9576 24.1235C74.2819 24.3995 73.6261 24.4784 73.0002 24.3699L73.9938 26.7852C74.0732 26.9823 74.1428 27.1499 74.2024 27.3076C74.262 27.4654 74.3117 27.6231 74.3515 27.8005L75.2556 27.3766L75.504 27.978L72.5034 29.2102L72.3245 28.7765C72.553 28.6877 72.7021 28.5694 72.7816 28.4314C72.861 28.2934 72.8909 28.1357 72.8809 27.9583C72.861 27.7808 72.8213 27.5836 72.7319 27.3569C72.6524 27.14 72.553 26.8936 72.4537 26.6274L69.5523 19.5691L69.5623 19.579ZM72.0264 17.075C71.8575 17.144 71.6985 17.2328 71.5495 17.3511C71.4104 17.4595 71.2713 17.5877 71.162 17.7257C71.0428 17.8637 70.9434 18.0017 70.854 18.1594C70.7645 18.3172 70.695 18.465 70.6354 18.6129C70.6552 18.6523 70.6751 18.6918 70.695 18.741C70.7149 18.7903 70.7546 18.8692 70.8043 18.9875C70.854 19.1058 70.9235 19.2734 71.0129 19.4903C71.1024 19.7071 71.2216 19.993 71.3706 20.3577C71.5197 20.7225 71.7085 21.176 71.9271 21.7181C72.1457 22.2603 72.4239 22.9208 72.7418 23.6897C73.0598 23.7686 73.3877 23.7982 73.7255 23.7785C74.0534 23.7588 74.3813 23.6799 74.7092 23.5517C75.0569 23.4039 75.3351 23.1968 75.5438 22.9208C75.7524 22.6448 75.8915 22.3096 75.9611 21.935C76.0306 21.5604 76.0406 21.1464 75.971 20.6929C75.9114 20.2395 75.7723 19.7761 75.5736 19.2931C75.4047 18.8988 75.206 18.534 74.9675 18.189C74.729 17.844 74.4608 17.5679 74.1527 17.3412C73.8547 17.1243 73.5168 16.9765 73.1691 16.9173C72.8213 16.8582 72.4338 16.9075 72.0364 17.0652L72.0264 17.075Z" fill="#1F1F1F"/>
<path d="M77.5111 10.8842C77.5707 10.9926 77.6105 11.1109 77.6204 11.2391C77.6303 11.3574 77.6204 11.4757 77.6005 11.594C77.5807 11.7123 77.531 11.801 77.4614 11.8996C77.3919 11.9982 77.3124 12.0672 77.213 12.1165C77.1137 12.1756 77.0044 12.2052 76.8951 12.215C76.7858 12.215 76.6665 12.215 76.5573 12.1756C76.448 12.1362 76.3387 12.0869 76.2492 12.008C76.1598 11.9292 76.0803 11.8404 76.0108 11.7221C75.9412 11.6038 75.9015 11.4855 75.8915 11.3574C75.8717 11.2391 75.8915 11.1109 75.9114 11.0025C75.9412 10.8842 75.9909 10.7856 76.0505 10.687C76.1201 10.5983 76.1996 10.5195 76.3089 10.4603C76.4082 10.4012 76.5175 10.3716 76.6367 10.3617C76.756 10.3519 76.8553 10.3716 76.9746 10.411C77.0938 10.4505 77.1832 10.5096 77.2826 10.5885C77.3819 10.6673 77.4614 10.7659 77.521 10.8842H77.5111ZM78.4153 15.5865C78.3358 15.4386 78.2563 15.3006 78.1868 15.1626C78.1172 15.0246 78.0477 14.857 77.9582 14.6598L77.0044 15.2612L76.6765 14.6795C76.9845 14.5119 77.223 14.3641 77.4118 14.2359C77.6005 14.1078 77.7496 13.9895 77.8489 13.881C77.9582 13.7726 78.0278 13.6839 78.0775 13.605C78.1271 13.5261 78.157 13.4473 78.1868 13.3586L78.5842 13.1417L81.7041 18.7114C81.8035 18.8987 81.8929 19.0565 81.9724 19.2043C82.0519 19.3522 82.1115 19.5099 82.1811 19.6775L83.0356 19.155L83.3535 19.717L80.5217 21.2844L80.2932 20.8703C80.5019 20.752 80.641 20.6239 80.7105 20.476C80.7701 20.3282 80.79 20.1704 80.7602 19.993C80.7304 19.8155 80.6608 19.6282 80.5515 19.4114C80.4422 19.2043 80.323 18.9776 80.1839 18.7213L78.4252 15.5766L78.4153 15.5865Z" fill="#1F1F1F"/>
<path d="M82.4196 13.3191C82.3203 13.1811 82.2308 13.053 82.1315 12.9051C82.0321 12.7671 81.9526 12.6094 81.8632 12.4516L80.9888 13.1516L80.6013 12.6094C80.8795 12.4122 81.1081 12.2348 81.267 12.0869C81.426 11.939 81.5552 11.8109 81.6347 11.7024C81.7142 11.594 81.7738 11.4954 81.8036 11.4166C81.8334 11.3377 81.8533 11.249 81.8731 11.1701L82.2408 10.9039C82.3202 10.9927 82.4097 11.1011 82.509 11.2095C82.6084 11.318 82.7276 11.4658 82.8568 11.6334C82.9065 11.4166 82.976 11.1898 83.0655 10.9729C83.1549 10.7462 83.2642 10.5392 83.3834 10.3322C83.5026 10.1252 83.6517 9.93785 83.8107 9.75055C83.9696 9.57311 84.1386 9.41539 84.3273 9.28723C85.0725 8.7549 85.7879 8.59717 86.4735 8.81405C87.1591 9.03092 87.8546 9.63226 88.5601 10.6082L90.289 12.9938C90.4082 13.1614 90.5175 13.3191 90.6169 13.4473C90.7063 13.5853 90.7957 13.7332 90.8752 13.8909L91.6601 13.2699L92.0377 13.7923L89.4047 15.6752L89.1264 15.2907C89.3252 15.1527 89.4444 15.0049 89.4941 14.857C89.5438 14.7091 89.5338 14.5415 89.4941 14.3739C89.4444 14.2064 89.345 14.0191 89.2159 13.8219C89.0867 13.6247 88.9377 13.4079 88.7687 13.1811L87.4671 11.3968C86.9206 10.6674 86.394 10.1942 85.8972 9.997C85.3905 9.78999 84.8838 9.86885 84.3671 10.2435C84.2081 10.3519 84.069 10.4899 83.9498 10.6476C83.8305 10.8054 83.7212 10.9729 83.6318 11.1405C83.5424 11.318 83.4728 11.4954 83.4132 11.6827C83.3635 11.87 83.3337 12.0573 83.3238 12.2446C83.3834 12.3136 83.443 12.3925 83.5026 12.4812C83.5623 12.5699 83.6318 12.6488 83.6914 12.7375L86.0562 16.0202C86.1754 16.1878 86.2847 16.3455 86.3742 16.4737C86.4636 16.6117 86.553 16.7596 86.6325 16.9173L87.4175 16.2963L87.795 16.8187L85.162 18.7016L84.8838 18.3171C85.0825 18.1791 85.2017 18.0313 85.2514 17.8834C85.3011 17.7355 85.2911 17.5679 85.2415 17.4003C85.1818 17.2328 85.0924 17.0455 84.9632 16.8483C84.8341 16.6511 84.685 16.4343 84.5161 16.2075L82.4097 13.2797L82.4196 13.3191Z" fill="#1F1F1F"/>
<path d="M92.9517 1.62758C92.8722 1.73601 92.8126 1.84446 92.7828 1.96275C92.753 2.08105 92.743 2.19934 92.7629 2.32749C92.7728 2.45565 92.8026 2.57394 92.8523 2.69224C92.902 2.81054 92.9517 2.91898 93.0212 3.01755C93.3789 3.0077 93.7267 3.06684 94.0645 3.18514C94.4023 3.31329 94.7004 3.50059 94.9588 3.76676C95.2767 4.08221 95.4953 4.4371 95.6245 4.83142C95.7536 5.22574 95.8033 5.62992 95.7735 6.03409C95.7437 6.43827 95.6344 6.84245 95.4456 7.22691C95.2568 7.61137 95.0084 7.96625 94.6905 8.27185C94.5514 8.40986 94.4123 8.5183 94.2931 8.60703C94.1738 8.69575 94.0248 8.81404 93.8757 8.95205C93.7366 9.09007 93.6273 9.22808 93.5478 9.38581C93.4684 9.53368 93.4187 9.68154 93.4087 9.81955C93.3889 9.95757 93.4087 10.0759 93.4385 10.1646C93.4684 10.2533 93.5081 10.3125 93.5578 10.3617C93.5975 10.4012 93.6571 10.4406 93.7168 10.48C93.8261 10.5392 93.9652 10.5589 94.1043 10.5195C94.2434 10.48 94.4222 10.4012 94.6011 10.2927C94.7799 10.1744 94.9886 10.0266 95.2072 9.83927C95.4258 9.65197 95.6742 9.43509 95.9524 9.18864C96.4094 8.78447 96.8367 8.4493 97.2441 8.17327C97.6514 7.89725 98.0389 7.70995 98.4066 7.61137C98.7742 7.51279 99.122 7.49307 99.4598 7.5818C99.7877 7.66066 100.106 7.85782 100.414 8.16341C100.722 8.46901 100.901 8.81404 100.96 9.20836C101.03 9.60268 101 10.0069 100.901 10.4209C100.791 10.8349 100.612 11.249 100.364 11.6531C100.116 12.0573 99.8175 12.4221 99.4896 12.7474C98.9829 13.2403 98.496 13.6247 98.0489 13.881C97.6018 14.1374 97.1944 14.3148 96.8267 14.3838C96.4591 14.4627 96.1312 14.4528 95.853 14.3838C95.5748 14.3049 95.3363 14.1669 95.1476 13.9796C94.9786 13.812 94.8594 13.6149 94.7799 13.4079C94.7004 13.2008 94.6607 12.9938 94.6507 12.7769C94.6408 12.5601 94.6507 12.3531 94.7004 12.1559C94.7402 11.9489 94.7998 11.7714 94.8594 11.6039C94.5415 11.7714 94.2434 11.8503 93.9751 11.8503C93.7068 11.8503 93.4386 11.732 93.2001 11.4856C93.0709 11.3574 92.9716 11.1997 92.902 11.0124C92.8324 10.8251 92.7927 10.6378 92.7927 10.4406C92.7927 10.2336 92.8225 10.0266 92.8821 9.81955C92.9417 9.61254 93.051 9.41538 93.1901 9.21822C92.9417 9.30694 92.6834 9.35623 92.4251 9.38581C92.1667 9.41538 91.9183 9.38581 91.6799 9.34638C91.4414 9.30694 91.2029 9.21822 90.9744 9.09007C90.7558 8.97177 90.5372 8.81405 90.3484 8.61689C90.0106 8.28172 89.7821 7.90711 89.6529 7.49307C89.5237 7.07904 89.4641 6.67486 89.5039 6.26082C89.5337 5.84679 89.643 5.45247 89.8218 5.06801C90.0007 4.68355 90.2391 4.34838 90.5372 4.0625C90.7956 3.81605 91.0738 3.60903 91.4017 3.44145C91.7295 3.27386 92.0574 3.15557 92.4052 3.08656C92.3058 2.87954 92.2363 2.6528 92.1965 2.42607C92.1568 2.19934 92.1568 1.9726 92.1767 1.76559C92.1965 1.54871 92.2562 1.35156 92.3456 1.1544C92.435 0.967096 92.5542 0.789648 92.7033 0.641778C92.8921 0.454477 93.0908 0.355896 93.2994 0.355896C93.4982 0.355896 93.687 0.434762 93.8658 0.612206C93.9055 0.651637 93.9453 0.710786 93.985 0.789649C94.0248 0.868513 94.0447 0.937517 94.0546 1.02624C94.0546 1.11496 94.0546 1.20369 94.0248 1.29241C93.995 1.38113 93.9353 1.47971 93.8459 1.55857C93.7168 1.67687 93.5677 1.74587 93.4087 1.74587C93.2498 1.74587 93.1107 1.70644 92.9815 1.61772L92.9517 1.62758ZM90.9049 4.48639C90.7061 4.68355 90.5571 4.90042 90.4776 5.13701C90.3981 5.37361 90.3782 5.6102 90.408 5.86651C90.4379 6.11296 90.5273 6.36926 90.6565 6.61571C90.7956 6.86216 90.9645 7.09875 91.193 7.32549C91.4613 7.59165 91.7295 7.81839 92.0177 7.97612C92.2959 8.1437 92.5741 8.25214 92.8424 8.30143C93.1206 8.35072 93.3789 8.34086 93.6373 8.262C93.8857 8.19299 94.1241 8.04512 94.3328 7.84796C94.5415 7.64094 94.6905 7.42407 94.77 7.19734C94.8495 6.9706 94.8793 6.73401 94.8495 6.49742C94.8197 6.26083 94.7402 6.01438 94.6011 5.77778C94.4719 5.53133 94.293 5.3046 94.0745 5.08773C93.836 4.84128 93.5677 4.63426 93.2895 4.45682C93.0113 4.27938 92.7331 4.16108 92.4549 4.10193C92.1767 4.04278 91.8985 4.03293 91.6401 4.10193C91.3719 4.16108 91.1334 4.29909 90.9148 4.5061L90.9049 4.48639ZM96.7274 10.1744C96.5088 10.3716 96.3001 10.5589 96.0915 10.7363C95.8828 10.9138 95.6742 11.0814 95.4754 11.2194C95.3959 11.5546 95.3959 11.8799 95.4754 12.1855C95.5549 12.4911 95.704 12.7474 95.9226 12.9741C96.1113 13.1614 96.32 13.2797 96.5585 13.3487C96.7969 13.4177 97.0553 13.4079 97.3235 13.3487C97.6018 13.2896 97.88 13.1713 98.178 13.0037C98.4761 12.8262 98.7643 12.5995 99.0624 12.3136C99.3902 11.9982 99.6486 11.6827 99.8374 11.3673C100.026 11.0518 100.155 10.7561 100.225 10.4702C100.294 10.1843 100.304 9.92799 100.255 9.6914C100.205 9.45481 100.096 9.25765 99.9367 9.09993C99.7281 8.89291 99.5095 8.77461 99.271 8.7549C99.0325 8.73518 98.7841 8.77461 98.5159 8.89291C98.2476 9.0112 97.9694 9.17879 97.6713 9.40552C97.3732 9.63225 97.0652 9.88856 96.7373 10.1843L96.7274 10.1744Z" fill="#1F1F1F"/>
</svg>
