<svg width="88" height="68" viewBox="0 0 88 68" fill="none" xmlns="http://www.w3.org/2000/svg">
<path d="M19.7847 51.7237V64.7962C19.7847 65.8306 20.6236 66.6581 21.6432 66.6581H70.1175C71.15 66.6581 71.976 65.8177 71.976 64.7962V24.9321C71.976 22.9537 72.7632 21.053 74.1571 19.6436L85.7336 8.04511C87.2823 6.49347 87.2823 3.98499 85.7336 2.44629C84.1849 0.894653 81.6812 0.894653 80.1454 2.44629L60.7995 21.8288L53.3399 14.3551L48.1776 16.4239C45.5061 17.4972 42.5377 17.4972 39.8662 16.4239L34.7039 14.3551L27.2443 21.8288L7.89842 2.44629C6.34972 0.894653 3.846 0.894653 2.31021 2.44629C0.761506 3.99792 0.761506 6.5064 2.31021 8.04511L16.7002 22.4624C18.6103 24.3761 19.3459 27.1949 18.5974 29.7939L12.351 51.7237H29.1286" fill="white"/>
<path d="M70.1304 67.6021H21.6561C20.1203 67.6021 18.8555 66.3478 18.8555 64.7962V52.6546H12.3251C12.0283 52.6546 11.7573 52.5124 11.5766 52.2797C11.3959 52.0469 11.3443 51.7366 11.4217 51.465L17.6682 29.5353C18.3134 27.2595 17.6811 24.7898 16.0033 23.1218L1.61328 8.70455C0.69696 7.7865 0.180725 6.54519 0.180725 5.23923C0.180725 3.93327 0.684054 2.7049 1.61328 1.77392C3.52334 -0.139767 6.62075 -0.139767 8.53081 1.77392L27.2185 20.497L34.0199 13.6827C34.2909 13.4241 34.6781 13.3336 35.0265 13.4758L40.1889 15.5447C42.641 16.5274 45.3512 16.5274 47.8033 15.5447L52.9657 13.4758C53.3141 13.3336 53.7013 13.4241 53.9723 13.6827L60.7737 20.497L79.4614 1.77392C81.3714 -0.139767 84.4688 -0.139767 86.366 1.77392C88.2632 3.6876 88.2761 6.79087 86.366 8.70455L74.7894 20.303C73.5505 21.5443 72.8794 23.1865 72.8794 24.9321V64.7962C72.8794 66.3349 71.6275 67.6021 70.0788 67.6021H70.1304ZM20.7268 52.6546V64.7962C20.7268 65.3134 21.1398 65.7272 21.6561 65.7272H70.1304C70.6467 65.7272 71.0597 65.3134 71.0597 64.7962V24.9321C71.0597 22.6822 71.9373 20.5746 73.5118 18.9841L85.0883 7.38566C86.2627 6.20901 86.2627 4.28239 85.0883 3.10574C83.901 1.91615 81.9909 1.91615 80.8165 3.10574L61.4706 22.4883C61.1093 22.8503 60.5156 22.8503 60.1542 22.4883L53.1334 15.4542L48.5389 17.2903C45.6351 18.454 42.4345 18.454 39.5436 17.2903L34.9491 15.4542L27.9283 22.4883C27.5669 22.8503 26.9733 22.8503 26.6119 22.4883L7.26604 3.10574C6.09161 1.92908 4.16864 1.92908 2.99421 3.10574C2.42635 3.67467 2.1037 4.43756 2.1037 5.25216C2.1037 6.06677 2.41345 6.81673 2.99421 7.38566L17.3842 21.8029C19.5395 23.9623 20.3526 27.1173 19.5137 30.0525L13.6028 50.7927H29.1415C29.6577 50.7927 30.0707 51.2064 30.0707 51.7236C30.0707 52.2409 29.6577 52.6546 29.1415 52.6546H20.7527H20.7268Z" fill="#1F1F1F"/>
</svg>
