<svg width="42" height="42" viewBox="0 0 42 42" fill="none" xmlns="http://www.w3.org/2000/svg">
<g clip-path="url(#clip0_713_1125)">
<path d="M25.0195 21C25.0195 23.22 23.22 25.0195 21 25.0195C18.78 25.0195 16.9805 23.22 16.9805 21C16.9805 18.78 18.78 16.9805 21 16.9805C23.22 16.9805 25.0195 18.78 25.0195 21Z" fill="#1F1F1F"/>
<path d="M30.4003 13.8883C30.207 13.3647 29.8988 12.8907 29.4982 12.5017C29.1092 12.1012 28.6356 11.7929 28.1117 11.5997C27.6868 11.4347 27.0485 11.2383 25.8728 11.1848C24.601 11.1268 24.2197 11.1143 21 11.1143C17.78 11.1143 17.3986 11.1264 16.1272 11.1844C14.9515 11.2383 14.3129 11.4347 13.8883 11.5997C13.3644 11.7929 12.8904 12.1012 12.5018 12.5017C12.1012 12.8907 11.793 13.3643 11.5994 13.8883C11.4344 14.3132 11.238 14.9518 11.1844 16.1275C11.1264 17.3989 11.114 17.7803 11.114 21.0003C11.114 24.22 11.1264 24.6013 11.1844 25.8732C11.238 27.0488 11.4344 27.6871 11.5994 28.112C11.793 28.6359 12.1009 29.1095 12.5014 29.4986C12.8904 29.8991 13.364 30.2074 13.888 30.4006C14.3129 30.5659 14.9515 30.7623 16.1272 30.8159C17.3986 30.8739 17.7796 30.886 20.9997 30.886C24.22 30.886 24.6014 30.8739 25.8725 30.8159C27.0482 30.7623 27.6868 30.5659 28.1117 30.4006C29.1634 29.9949 29.9946 29.1637 30.4003 28.112C30.5653 27.6871 30.7617 27.0488 30.8156 25.8732C30.8736 24.6013 30.8857 24.22 30.8857 21.0003C30.8857 17.7803 30.8736 17.3989 30.8156 16.1275C30.762 14.9518 30.5656 14.3132 30.4003 13.8883ZM21 27.1921C17.58 27.1921 14.8076 24.42 14.8076 21C14.8076 17.58 17.58 14.8079 21 14.8079C24.4197 14.8079 27.1921 17.58 27.1921 21C27.1921 24.42 24.4197 27.1921 21 27.1921ZM27.4369 16.0102C26.6377 16.0102 25.9898 15.3623 25.9898 14.5631C25.9898 13.7639 26.6377 13.116 27.4369 13.116C28.2361 13.116 28.884 13.7639 28.884 14.5631C28.8837 15.3623 28.2361 16.0102 27.4369 16.0102Z" fill="#1F1F1F"/>
<path d="M21 0C9.40379 0 0 9.40379 0 21C0 32.5962 9.40379 42 21 42C32.5962 42 42 32.5962 42 21C42 9.40379 32.5962 0 21 0ZM32.9859 25.9715C32.9275 27.2552 32.7234 28.1316 32.4254 28.8987C31.799 30.5185 30.5185 31.799 28.8987 32.4254C28.1319 32.7234 27.2552 32.9272 25.9719 32.9859C24.686 33.0445 24.2752 33.0586 21.0003 33.0586C17.7252 33.0586 17.3147 33.0445 16.0285 32.9859C14.7451 32.9272 13.8684 32.7234 13.1016 32.4254C12.2967 32.1226 11.568 31.648 10.9656 31.0344C10.3523 30.4323 9.87772 29.7033 9.57491 28.8987C9.2769 28.1319 9.07278 27.2552 9.01447 25.9719C8.95518 24.6856 8.94141 24.2748 8.94141 21C8.94141 17.7252 8.95518 17.3144 9.01414 16.0285C9.07246 14.7448 9.27626 13.8684 9.57426 13.1013C9.87708 12.2967 10.352 11.5677 10.9656 10.9656C11.5677 10.352 12.2967 9.8774 13.1013 9.57458C13.8684 9.27658 14.7448 9.07278 16.0285 9.01414C17.3144 8.95551 17.7252 8.94141 21 8.94141C24.2748 8.94141 24.6856 8.95551 25.9715 9.01447C27.2552 9.07278 28.1316 9.27658 28.8987 9.57426C29.7033 9.87708 30.4323 10.352 31.0347 10.9656C31.648 11.568 32.1229 12.2967 32.4254 13.1013C32.7237 13.8684 32.9275 14.7448 32.9862 16.0285C33.0448 17.3144 33.0586 17.7252 33.0586 21C33.0586 24.2748 33.0448 24.6856 32.9859 25.9715Z" fill="#1F1F1F"/>
</g>
<defs>
<clipPath id="clip0_713_1125">
<rect width="42" height="42" fill="white"/>
</clipPath>
</defs>
</svg>
