<svg width="42" height="42" viewBox="0 0 42 42" fill="none" xmlns="http://www.w3.org/2000/svg">
<g clip-path="url(#clip0_713_1131)">
<path d="M31.5408 2.81745C28.3236 0.93968 24.8097 0.000976562 21 0.000976562C17.1898 0.000976562 13.676 0.93968 10.4587 2.81745C7.24144 4.69529 4.69388 7.24286 2.81647 10.4597C0.938703 13.6774 0 17.1911 0 21.001C0 25.2483 1.15706 29.1038 3.47249 32.567C5.78748 36.0311 8.82239 38.5919 12.578 40.2504C12.5048 38.2999 12.6233 36.687 12.9335 35.411L15.6404 23.9813C15.1846 23.0883 14.9569 21.9764 14.9569 20.6454C14.9569 19.096 15.3488 17.8014 16.1326 16.7628C16.9159 15.7234 17.8733 15.2036 19.0037 15.2036C19.9148 15.2036 20.6169 15.5041 21.1092 16.1064C21.6014 16.7077 21.8478 17.4645 21.8478 18.3757C21.8478 18.9411 21.7425 19.6295 21.5335 20.4403C21.3235 21.2516 21.0501 22.1902 20.7133 23.2568C20.376 24.3229 20.1345 25.175 19.9885 25.8133C19.7329 26.925 19.9428 27.8774 20.6174 28.6706C21.2915 29.4637 22.185 29.8599 23.2972 29.8599C25.2478 29.8599 26.8474 28.7757 28.0963 26.6063C29.3448 24.4369 29.9692 21.8028 29.9692 18.7035C29.9692 16.3158 29.1992 14.374 27.6587 12.8793C26.1183 11.3849 23.9714 10.6371 21.2193 10.6371C18.1382 10.6371 15.6452 11.6264 13.7408 13.6036C11.8359 15.5818 10.8834 17.9473 10.8834 20.699C10.8834 22.3398 11.3486 23.7165 12.2779 24.8284C12.5877 25.1931 12.688 25.5846 12.5788 26.0036C12.542 26.1132 12.4692 26.3866 12.36 26.8237C12.2509 27.2609 12.1776 27.5441 12.1412 27.6714C11.9952 28.2551 11.649 28.4375 11.1018 28.2183C9.698 27.635 8.63144 26.6236 7.90268 25.1833C7.17349 23.7435 6.80908 22.0757 6.80908 20.1797C6.80908 18.9583 7.00481 17.7368 7.39671 16.5154C7.78861 15.2941 8.39887 14.1139 9.22886 12.9741C10.0579 11.8357 11.0517 10.8278 12.2096 9.95301C13.3671 9.07777 14.7754 8.37657 16.4343 7.84702C18.093 7.31886 19.8798 7.05438 21.7939 7.05438C24.3823 7.05438 26.7067 7.62866 28.7664 8.77681C30.8261 9.92546 32.3987 11.4114 33.4834 13.2341C34.5676 15.0569 35.1104 17.0071 35.1104 19.0859C35.1104 21.8203 34.6361 24.2814 33.6885 26.469C32.7405 28.6567 31.4006 30.3746 29.6687 31.6232C27.9364 32.8716 25.9676 33.4961 23.7623 33.4961C22.6501 33.4961 21.6111 33.2365 20.6449 32.7166C19.6782 32.197 19.013 31.5818 18.6486 30.8708C17.8284 34.0969 17.3362 36.021 17.172 36.6401C16.8254 37.9348 16.1144 39.429 15.039 41.1245C16.9896 41.7078 18.9765 41.9992 21 41.9992C24.8098 41.9992 28.3236 41.0606 31.5408 39.1833C34.758 37.3054 37.3056 34.7579 39.1835 31.5401C41.0609 28.3228 42.0001 24.8095 42.0001 20.9992C42.0001 17.1889 41.0609 13.6757 39.1835 10.458C37.306 7.24286 34.758 4.69529 31.5408 2.81745Z" fill="#1F1F1F"/>
</g>
<defs>
<clipPath id="clip0_713_1131">
<rect width="42" height="42" fill="white"/>
</clipPath>
</defs>
</svg>
