<svg width="25" height="25" viewBox="0 0 25 25" fill="none" xmlns="http://www.w3.org/2000/svg">
<path d="M20.8373 20.0518L16.3167 15.5313C17.3981 14.2667 17.9893 12.6763 17.9893 10.9947C17.9893 9.12635 17.2616 7.36996 15.9405 6.04878C14.6193 4.72765 12.8627 4 10.9945 4C9.12598 4 7.36971 4.72754 6.04852 6.04878C4.72753 7.36975 4 9.1262 4 10.9945C4 12.8629 4.72737 14.6193 6.04866 15.9406C7.36965 17.2616 9.12598 17.9894 10.9946 17.9894C12.6766 17.9894 14.2664 17.3981 15.5313 16.3168L20.0518 20.8372C20.1603 20.9457 20.3028 21 20.4445 21C20.5867 21 20.7286 20.9458 20.8372 20.8372C21.0542 20.6205 21.0542 20.2687 20.8374 20.0517L20.8373 20.0518ZM10.9943 16.8785C9.42247 16.8785 7.94542 16.2663 6.83394 15.1552C5.72248 14.0437 5.1106 12.5663 5.1106 10.9947C5.1106 9.42298 5.72261 7.94552 6.83394 6.83435C7.94541 5.72306 9.42276 5.11103 10.9943 5.11103C12.5659 5.11103 14.0436 5.7232 15.1549 6.83449C16.266 7.94561 16.8782 9.42328 16.8782 10.9947C16.8782 12.5664 16.2661 14.0439 15.1549 15.1552C14.0434 16.2661 12.5656 16.8785 10.9943 16.8785Z" fill="#454049" stroke="#454049" stroke-width="0.5"/>
</svg>
