<svg width="48" height="22" viewBox="0 0 48 22" fill="none" xmlns="http://www.w3.org/2000/svg">
<g clip-path="url(#clip0_202_2462)">
<path d="M48 3.25926C48 1.45922 46.5674 0 44.8 0H3.2C1.43269 0 0 1.45922 0 3.25926V18.7407C0 20.5408 1.43269 22 3.2 22H44.8C46.5674 22 48 20.5408 48 18.7407V3.25926Z" fill="white"/>
<path d="M18.7268 7.58208L19.8279 16.707H30.5956L29.4943 7.58208H18.7268Z" fill="#F0C2C2"/>
<path d="M21.7985 4.09999C22.4852 4.75757 22.5795 5.79182 22.0089 6.41008C21.4383 7.02835 20.419 6.99646 19.7323 6.33889C19.0455 5.68131 18.9513 4.64707 19.5219 4.0288C20.0924 3.41055 21.1118 3.44241 21.7985 4.09999Z" fill="#1F1F1F"/>
<path fill-rule="evenodd" clip-rule="evenodd" d="M41.8801 10.8678C41.6322 8.81556 40.0495 7.57487 37.9002 7.58208H30.7407L31.8418 16.707H35.0641L34.8446 14.882H38.2543C40.9346 14.882 42.1633 13.1796 41.8801 10.8678ZM37.9038 12.3249L34.5329 12.3285L34.2673 10.1392L37.6559 10.1428C38.4526 10.1536 38.8598 10.6081 38.9271 11.2356C38.9695 11.636 38.7889 12.3249 37.9038 12.3249Z" fill="#1F1F1F"/>
<path d="M7.51311 14.157L7.82115 16.707H18.5781L18.224 13.7892H13.2103L13.1642 13.4249L17.7849 10.1392L17.4769 7.58209H6.71997L7.07051 10.5035H12.0949L12.1409 10.8678L7.51311 14.157Z" fill="#1F1F1F"/>
</g>
<defs>
<clipPath id="clip0_202_2462">
<rect width="48" height="22" fill="white"/>
</clipPath>
</defs>
</svg>
