<svg width="58" height="17" viewBox="0 0 58 17" fill="none" xmlns="http://www.w3.org/2000/svg">
<path d="M12.8346 5.344V7.232H0.530563V5.344H12.8346ZM26.8192 9.872H22.3712L21.6352 12H19.2832L23.2992 0.815999H25.9072L29.9232 12H27.5552L26.8192 9.872ZM26.2112 8.08L24.5952 3.408L22.9792 8.08H26.2112ZM42.9123 3.008C44.0003 3.008 44.875 3.344 45.5363 4.016C46.2083 4.67733 46.5443 5.60533 46.5443 6.8V12H44.3043V7.104C44.3043 6.41067 44.1283 5.88267 43.7763 5.52C43.4243 5.14667 42.9443 4.96 42.3363 4.96C41.7283 4.96 41.243 5.14667 40.8803 5.52C40.5283 5.88267 40.3523 6.41067 40.3523 7.104V12H38.1123V7.104C38.1123 6.41067 37.9363 5.88267 37.5843 5.52C37.2323 5.14667 36.7523 4.96 36.1443 4.96C35.5256 4.96 35.035 5.14667 34.6723 5.52C34.3203 5.88267 34.1443 6.41067 34.1443 7.104V12H31.9043V3.136H34.1443V4.208C34.4323 3.83467 34.8003 3.54133 35.2483 3.328C35.707 3.11467 36.2083 3.008 36.7523 3.008C37.4456 3.008 38.0643 3.15733 38.6083 3.456C39.1523 3.744 39.5736 4.16 39.8723 4.704C40.1603 4.192 40.5763 3.78133 41.1203 3.472C41.675 3.16267 42.2723 3.008 42.9123 3.008ZM57.6299 3.136L52.1419 16.192H49.7579L51.6779 11.776L48.1259 3.136H50.6379L52.9259 9.328L55.2459 3.136H57.6299Z" fill="#1F1F1F"/>
</svg>
