<svg width="76" height="13" viewBox="0 0 76 13" fill="none" xmlns="http://www.w3.org/2000/svg">
<path d="M12.7239 5.344V7.232H0.419937V5.344H12.7239ZM22.1006 10.224H25.7806V12H19.8606V0.832H22.1006V10.224ZM27.1083 7.536C27.1083 6.64 27.2843 5.84533 27.6363 5.152C27.999 4.45867 28.4843 3.92533 29.0923 3.552C29.711 3.17867 30.399 2.992 31.1563 2.992C31.8176 2.992 32.3936 3.12533 32.8843 3.392C33.3856 3.65867 33.7856 3.99467 34.0843 4.4V3.136H36.3403V12H34.0843V10.704C33.7963 11.12 33.3963 11.4667 32.8843 11.744C32.383 12.0107 31.8016 12.144 31.1403 12.144C30.3936 12.144 29.711 11.952 29.0923 11.568C28.4843 11.184 27.999 10.6453 27.6363 9.952C27.2843 9.248 27.1083 8.44267 27.1083 7.536ZM34.0843 7.568C34.0843 7.024 33.9776 6.56 33.7643 6.176C33.551 5.78133 33.263 5.48267 32.9003 5.28C32.5376 5.06667 32.1483 4.96 31.7323 4.96C31.3163 4.96 30.9323 5.06133 30.5803 5.264C30.2283 5.46667 29.9403 5.76533 29.7163 6.16C29.503 6.544 29.3963 7.00267 29.3963 7.536C29.3963 8.06933 29.503 8.53867 29.7163 8.944C29.9403 9.33867 30.2283 9.64267 30.5803 9.856C30.943 10.0693 31.327 10.176 31.7323 10.176C32.1483 10.176 32.5376 10.0747 32.9003 9.872C33.263 9.65867 33.551 9.36 33.7643 8.976C33.9776 8.58133 34.0843 8.112 34.0843 7.568ZM47.3761 3.136V12H45.1201V10.88C44.8321 11.264 44.4534 11.568 43.9841 11.792C43.5254 12.0053 43.0241 12.112 42.4801 12.112C41.7867 12.112 41.1734 11.968 40.6401 11.68C40.1067 11.3813 39.6854 10.9493 39.3761 10.384C39.0774 9.808 38.9281 9.12533 38.9281 8.336V3.136H41.1681V8.016C41.1681 8.72 41.3441 9.264 41.6961 9.648C42.0481 10.0213 42.5281 10.208 43.1361 10.208C43.7547 10.208 44.2401 10.0213 44.5921 9.648C44.9441 9.264 45.1201 8.72 45.1201 8.016V3.136H47.3761ZM52.3062 4.512C52.5942 4.04267 52.9675 3.67467 53.4262 3.408C53.8955 3.14133 54.4289 3.008 55.0262 3.008V5.36H54.4342C53.7302 5.36 53.1969 5.52533 52.8342 5.856C52.4822 6.18667 52.3062 6.76267 52.3062 7.584V12H50.0662V3.136H52.3062V4.512ZM65.2549 7.376C65.2549 7.696 65.2336 7.984 65.1909 8.24H58.7109C58.7643 8.88 58.9883 9.38133 59.3829 9.744C59.7776 10.1067 60.2629 10.288 60.8389 10.288C61.6709 10.288 62.2629 9.93067 62.6149 9.216H65.0309C64.7749 10.0693 64.2843 10.7733 63.5589 11.328C62.8336 11.872 61.9429 12.144 60.8869 12.144C60.0336 12.144 59.2656 11.9573 58.5829 11.584C57.9109 11.2 57.3829 10.6613 56.9989 9.968C56.6256 9.27467 56.4389 8.47467 56.4389 7.568C56.4389 6.65067 56.6256 5.84533 56.9989 5.152C57.3723 4.45867 57.8949 3.92533 58.5669 3.552C59.2389 3.17867 60.0123 2.992 60.8869 2.992C61.7296 2.992 62.4816 3.17333 63.1429 3.536C63.8149 3.89867 64.3323 4.416 64.6949 5.088C65.0683 5.74933 65.2549 6.512 65.2549 7.376ZM62.9349 6.736C62.9243 6.16 62.7163 5.70133 62.3109 5.36C61.9056 5.008 61.4096 4.832 60.8229 4.832C60.2683 4.832 59.7989 5.00267 59.4149 5.344C59.0416 5.67467 58.8123 6.13867 58.7269 6.736H62.9349ZM72.2819 3.008C73.3379 3.008 74.1913 3.344 74.8419 4.016C75.4926 4.67733 75.8179 5.60533 75.8179 6.8V12H73.5779V7.104C73.5779 6.4 73.4019 5.86133 73.0499 5.488C72.6979 5.104 72.2179 4.912 71.6099 4.912C70.9913 4.912 70.5006 5.104 70.1379 5.488C69.7859 5.86133 69.6099 6.4 69.6099 7.104V12H67.3699V3.136H69.6099V4.24C69.9086 3.856 70.2873 3.55733 70.7459 3.344C71.2153 3.12 71.7273 3.008 72.2819 3.008Z" fill="#1F1F1F"/>
</svg>
