<svg width="60" height="13" viewBox="0 0 60 13" fill="none" xmlns="http://www.w3.org/2000/svg">
<path d="M12.6749 5.344V7.232H0.370875V5.344H12.6749ZM26.1155 12L22.0515 7.024V12H19.8115V0.832H22.0515V5.84L26.1155 0.832H28.8195L24.2115 6.368L28.9475 12H26.1155ZM39.1409 7.376C39.1409 7.696 39.1195 7.984 39.0769 8.24H32.5969C32.6502 8.88 32.8742 9.38133 33.2689 9.744C33.6635 10.1067 34.1489 10.288 34.7249 10.288C35.5569 10.288 36.1489 9.93067 36.5009 9.216H38.9169C38.6609 10.0693 38.1702 10.7733 37.4449 11.328C36.7195 11.872 35.8289 12.144 34.7729 12.144C33.9195 12.144 33.1515 11.9573 32.4689 11.584C31.7969 11.2 31.2689 10.6613 30.8849 9.968C30.5115 9.27467 30.3249 8.47467 30.3249 7.568C30.3249 6.65067 30.5115 5.84533 30.8849 5.152C31.2582 4.45867 31.7809 3.92533 32.4529 3.552C33.1249 3.17867 33.8982 2.992 34.7729 2.992C35.6155 2.992 36.3675 3.17333 37.0289 3.536C37.7009 3.89867 38.2182 4.416 38.5809 5.088C38.9542 5.74933 39.1409 6.512 39.1409 7.376ZM36.8209 6.736C36.8102 6.16 36.6022 5.70133 36.1969 5.36C35.7915 5.008 35.2955 4.832 34.7089 4.832C34.1542 4.832 33.6849 5.00267 33.3009 5.344C32.9275 5.67467 32.6982 6.13867 32.6129 6.736H36.8209ZM43.4959 0.16V12H41.2559V0.16H43.4959ZM48.429 0.16V12H46.189V0.16H48.429ZM59.3621 7.376C59.3621 7.696 59.3408 7.984 59.2981 8.24H52.8181C52.8715 8.88 53.0955 9.38133 53.4901 9.744C53.8848 10.1067 54.3701 10.288 54.9461 10.288C55.7781 10.288 56.3701 9.93067 56.7221 9.216H59.1381C58.8821 10.0693 58.3915 10.7733 57.6661 11.328C56.9408 11.872 56.0501 12.144 54.9941 12.144C54.1408 12.144 53.3728 11.9573 52.6901 11.584C52.0181 11.2 51.4901 10.6613 51.1061 9.968C50.7328 9.27467 50.5461 8.47467 50.5461 7.568C50.5461 6.65067 50.7328 5.84533 51.1061 5.152C51.4795 4.45867 52.0021 3.92533 52.6741 3.552C53.3461 3.17867 54.1195 2.992 54.9941 2.992C55.8368 2.992 56.5888 3.17333 57.2501 3.536C57.9221 3.89867 58.4395 4.416 58.8021 5.088C59.1755 5.74933 59.3621 6.512 59.3621 7.376ZM57.0421 6.736C57.0315 6.16 56.8235 5.70133 56.4181 5.36C56.0128 5.008 55.5168 4.832 54.9301 4.832C54.3755 4.832 53.9061 5.00267 53.5221 5.344C53.1488 5.67467 52.9195 6.13867 52.8341 6.736H57.0421Z" fill="#1F1F1F"/>
</svg>
