<svg xmlns="http://www.w3.org/2000/svg" width="60.201" height="11.583" viewBox="0 0 60.201 11.583">
  <g id="Afterpay" transform="translate(0 0)">
    <path id="Path_195" data-name="Path 195" d="M1272.859,311.2l-1.811-1.039-1.837-1.054a1.826,1.826,0,0,0-2.735,1.584v.237a.361.361,0,0,0,.182.313l.852.489a.355.355,0,0,0,.531-.308v-.56a.361.361,0,0,1,.541-.313l1.679.963,1.673.96a.361.361,0,0,1,0,.626l-1.673.96-1.679.963a.361.361,0,0,1-.541-.313v-.278a1.826,1.826,0,0,0-2.735-1.584l-1.837,1.054-1.811,1.039a1.826,1.826,0,0,0,0,3.168l1.811,1.039,1.837,1.054a1.826,1.826,0,0,0,2.735-1.584v-.237a.361.361,0,0,0-.181-.313l-.852-.489a.355.355,0,0,0-.531.308v.561a.361.361,0,0,1-.541.313l-1.679-.963-1.674-.96a.361.361,0,0,1,0-.626l1.674-.96,1.679-.963a.361.361,0,0,1,.541.313v.278a1.826,1.826,0,0,0,2.735,1.584l1.837-1.054,1.811-1.039A1.826,1.826,0,0,0,1272.859,311.2Z" transform="translate(-1213.575 -308.862)"/>
    <g id="Group_232" data-name="Group 232" transform="translate(40.473 2.685)">
      <path id="Path_196" data-name="Path 196" d="M1139.916,360.1l-4.248,8.767h-1.762l1.587-3.276L1133,360.1h1.808l1.6,3.677,1.751-3.677Z" transform="translate(-1132.997 -360.098)"/>
    </g>
    <g id="Group_234" data-name="Group 234" transform="translate(0 0.135)">
      <g id="Group_233" data-name="Group 233" transform="translate(0 0)">
        <path id="Path_197" data-name="Path 197" d="M365.531,361.184a1.7,1.7,0,1,0-1.693,1.781,1.7,1.7,0,0,0,1.693-1.781m.013,3.113v-.809a2.493,2.493,0,0,1-1.967.909,3.04,3.04,0,0,1-3-3.212,3.1,3.1,0,0,1,3.038-3.225,2.483,2.483,0,0,1,1.93.9v-.785h1.531V364.3Z" transform="translate(-360.576 -355.522)"/>
        <path id="Path_198" data-name="Path 198" d="M505.142,318.835c-.535,0-.685-.2-.685-.722v-2.764h.983v-1.357h-.983v-1.519h-1.569v1.519h-2.021v-.62c0-.523.2-.722.747-.722h.345v-1.208H501.2c-1.295,0-1.9.423-1.9,1.718v.831h-.872v1.357h.872v4.868h1.569v-4.868h2.021v3.05c0,1.27.485,1.818,1.755,1.818h.809v-1.382Z" transform="translate(-491.204 -311.442)"/>
        <path id="Path_199" data-name="Path 199" d="M647.971,360.623a1.492,1.492,0,0,0-1.544-1.295,1.541,1.541,0,0,0-1.569,1.295Zm-3.125.971a1.55,1.55,0,0,0,1.606,1.444,1.65,1.65,0,0,0,1.469-.809h1.606a3.249,3.249,0,0,1-6.312-1.033,3.219,3.219,0,1,1,6.437,0,2.071,2.071,0,0,1-.037.4Z" transform="translate(-628.405 -355.522)"/>
        <path id="Path_200" data-name="Path 200" d="M867.311,361.184a1.7,1.7,0,1,0-1.693,1.781,1.724,1.724,0,0,0,1.693-1.781m-4.93,5.654v-8.767h1.531v.809a2.466,2.466,0,0,1,1.967-.921,3.062,3.062,0,0,1,3,3.212,3.1,3.1,0,0,1-3.038,3.225,2.409,2.409,0,0,1-1.88-.834v3.276Z" transform="translate(-836.088 -355.522)"/>
        <path id="Path_201" data-name="Path 201" d="M1002.119,361.184a1.7,1.7,0,1,0-1.693,1.781,1.7,1.7,0,0,0,1.693-1.781m.012,3.113v-.809a2.493,2.493,0,0,1-1.967.909,3.04,3.04,0,0,1-3-3.212,3.1,3.1,0,0,1,3.038-3.225,2.483,2.483,0,0,1,1.93.9v-.785h1.531V364.3Z" transform="translate(-963.809 -355.522)"/>
        <path id="Path_202" data-name="Path 202" d="M782.015,358.682a1.632,1.632,0,0,1,2.017-.582v1.588a1.976,1.976,0,0,0-1.105-.284,1.1,1.1,0,0,0-.862,1.208V364.3h-1.581v-6.225h1.531Z" transform="translate(-758.482 -355.522)"/>
      </g>
    </g>
  </g>
</svg>
