<svg xmlns="http://www.w3.org/2000/svg" width="384.744" height="364.825" viewBox="0 0 384.744 364.825">
  <g id="Flower_Group_2" data-name="Flower Group 2" transform="translate(-9.363 -165.255)">
    <g id="Group_1096" data-name="Group 1096" transform="translate(-1437.068 -6997.101)">
      <g id="Group_1089" data-name="Group 1089" transform="translate(1446.431 7162.355)">
        <g id="Group_1088" data-name="Group 1088" transform="translate(0 0)">
          <ellipse id="Ellipse_40" data-name="Ellipse 40" cx="56.877" cy="72.389" rx="56.877" ry="72.389" transform="translate(29.874 48.233) rotate(-22)" fill="#fff"/>
          <ellipse id="Ellipse_43" data-name="Ellipse 43" cx="56.877" cy="72.389" rx="56.877" ry="72.389" transform="translate(91.922 203.352) rotate(-22)" fill="#fff"/>
          <ellipse id="Ellipse_44" data-name="Ellipse 44" cx="56.877" cy="72.389" rx="56.877" ry="72.389" transform="matrix(0.574, 0.819, -0.819, 0.574, 118.596, 103.691)" fill="#fff"/>
          <ellipse id="Ellipse_42" data-name="Ellipse 42" cx="56.877" cy="72.389" rx="56.877" ry="72.389" transform="translate(156.686 211.154) rotate(-70)" fill="#fff"/>
          <ellipse id="Ellipse_41" data-name="Ellipse 41" cx="67.219" cy="72.389" rx="67.219" ry="72.389" transform="translate(174.93 0) rotate(29)" fill="#fff"/>
        </g>
        <circle id="Ellipse_45" data-name="Ellipse 45" cx="36.195" cy="36.195" r="36.195" transform="translate(125.238 135.412)" fill="#ae8e77"/>
      </g>
    </g>
    <g id="Group_1097" data-name="Group 1097" transform="translate(2650.07 -6521.264) rotate(30)">
      <g id="Group_1089-2" data-name="Group 1089" transform="translate(1446.431 7162.355)">
        <g id="Group_1088-2" data-name="Group 1088" transform="translate(0 0)">
          <ellipse id="Ellipse_40-2" data-name="Ellipse 40" cx="18.699" cy="23.799" rx="18.699" ry="23.799" transform="translate(9.821 15.857) rotate(-22)" fill="#fff"/>
          <ellipse id="Ellipse_43-2" data-name="Ellipse 43" cx="18.699" cy="23.799" rx="18.699" ry="23.799" transform="translate(30.22 66.855) rotate(-22)" fill="#fff"/>
          <ellipse id="Ellipse_44-2" data-name="Ellipse 44" cx="18.699" cy="23.799" rx="18.699" ry="23.799" transform="matrix(0.574, 0.819, -0.819, 0.574, 38.99, 34.09)" fill="#fff"/>
          <ellipse id="Ellipse_42-2" data-name="Ellipse 42" cx="18.699" cy="23.799" rx="18.699" ry="23.799" transform="translate(51.513 69.419) rotate(-70)" fill="#fff"/>
          <ellipse id="Ellipse_41-2" data-name="Ellipse 41" cx="22.099" cy="23.799" rx="22.099" ry="23.799" transform="translate(57.51 0) rotate(29)" fill="#fff"/>
        </g>
        <circle id="Ellipse_45-2" data-name="Ellipse 45" cx="11.899" cy="11.899" r="11.899" transform="translate(41.174 44.518)" fill="#ae8e77"/>
      </g>
    </g>
  </g>
</svg>
