<svg xmlns="http://www.w3.org/2000/svg" width="474.654" height="409.49" viewBox="0 0 474.654 409.49">
  <g id="Flower_Group_3" data-name="Flower Group 3" transform="translate(-1543.84 -638.255)">
    <g id="Group_1094" data-name="Group 1094" transform="translate(169.789 -6524.101)">
      <g id="Group_1089" data-name="Group 1089" transform="translate(1446.431 7162.355)">
        <g id="Group_1088" data-name="Group 1088" transform="translate(0 0)">
          <ellipse id="Ellipse_40" data-name="Ellipse 40" cx="68.991" cy="87.807" rx="68.991" ry="87.807" transform="translate(36.237 58.505) rotate(-22)" fill="#fff"/>
          <ellipse id="Ellipse_43" data-name="Ellipse 43" cx="68.991" cy="87.807" rx="68.991" ry="87.807" transform="translate(111.5 246.663) rotate(-22)" fill="#fff"/>
          <ellipse id="Ellipse_44" data-name="Ellipse 44" cx="68.991" cy="87.807" rx="68.991" ry="87.807" transform="matrix(0.574, 0.819, -0.819, 0.574, 143.855, 125.776)" fill="#fff"/>
          <ellipse id="Ellipse_42" data-name="Ellipse 42" cx="68.991" cy="87.807" rx="68.991" ry="87.807" transform="translate(190.058 256.126) rotate(-70)" fill="#fff"/>
          <ellipse id="Ellipse_41" data-name="Ellipse 41" cx="81.535" cy="87.807" rx="81.535" ry="87.807" transform="translate(212.188 0) rotate(29)" fill="#fff"/>
        </g>
        <circle id="Ellipse_45" data-name="Ellipse 45" cx="43.904" cy="43.904" r="43.904" transform="translate(151.912 164.252)" fill="#ae8e77"/>
      </g>
    </g>
    <g id="Group_1098" data-name="Group 1098" transform="translate(3903.067 -6269.629) rotate(30)">
      <g id="Group_1089-2" data-name="Group 1089" transform="translate(1446.431 7162.355)">
        <g id="Group_1088-2" data-name="Group 1088" transform="translate(0 0)">
          <ellipse id="Ellipse_40-2" data-name="Ellipse 40" cx="18.699" cy="23.799" rx="18.699" ry="23.799" transform="translate(9.821 15.857) rotate(-22)" fill="#fff"/>
          <ellipse id="Ellipse_43-2" data-name="Ellipse 43" cx="18.699" cy="23.799" rx="18.699" ry="23.799" transform="translate(30.22 66.855) rotate(-22)" fill="#fff"/>
          <ellipse id="Ellipse_44-2" data-name="Ellipse 44" cx="18.699" cy="23.799" rx="18.699" ry="23.799" transform="matrix(0.574, 0.819, -0.819, 0.574, 38.99, 34.09)" fill="#fff"/>
          <ellipse id="Ellipse_42-2" data-name="Ellipse 42" cx="18.699" cy="23.799" rx="18.699" ry="23.799" transform="translate(51.513 69.419) rotate(-70)" fill="#fff"/>
          <ellipse id="Ellipse_41-2" data-name="Ellipse 41" cx="22.099" cy="23.799" rx="22.099" ry="23.799" transform="translate(57.51 0) rotate(29)" fill="#fff"/>
        </g>
        <circle id="Ellipse_45-2" data-name="Ellipse 45" cx="11.899" cy="11.899" r="11.899" transform="translate(41.174 44.518)" fill="#ae8e77"/>
      </g>
    </g>
  </g>
</svg>
