<svg xmlns="http://www.w3.org/2000/svg" width="315.371" height="36.614" viewBox="0 0 315.371 36.614">
  <g id="Free_30_Day_returns_policy" data-name="Free 30 Day returns policy" transform="translate(-419 -3020)">
    <text id="Free_30_Day_returns_policy-2" data-name="Free 30 Day returns policy" transform="translate(602.371 3045)" font-size="18" font-family="Poppins-SemiBold, Poppins" font-weight="600" letter-spacing="0.005em"><tspan x="-131" y="0">FREE 30 DAY RETURNS POLICY</tspan></text>
    <path id="noun-returns-3918367" d="M70.641,102.564A11.174,11.174,0,0,0,59.475,91.4H39.711V88.062a1.468,1.468,0,0,0-.813-1.326,1.512,1.512,0,0,0-1.583.128L30.6,91.87a1.5,1.5,0,0,0,0,2.4l6.716,5.005a1.421,1.421,0,0,0,.9.3A1.354,1.354,0,0,0,38.9,99.4a1.469,1.469,0,0,0,.813-1.326V94.736H59.475a7.849,7.849,0,0,1,.813,15.657v-4.877a1.636,1.636,0,0,0-.984-1.5l-9.583-4.406a1.54,1.54,0,0,0-1.369,0l-9.625,4.406a1.636,1.636,0,0,0-.984,1.5v11.636a1.636,1.636,0,0,0,.984,1.5l9.583,4.406a1.889,1.889,0,0,0,1.369,0L59.3,118.65a1.636,1.636,0,0,0,.984-1.5V113.73a11.2,11.2,0,0,0,10.353-11.166Zm-21.647.385,5.647,2.567-5.647,2.567-5.647-2.567Zm-7.914,5.134,6.289,2.866v8l-6.289-2.866Zm9.583,10.866v-8l6.289-2.866v8Z" transform="translate(389 2933.429)"/>
  </g>
</svg>
