<svg xmlns="http://www.w3.org/2000/svg" width="14.834" height="14.157" viewBox="0 0 14.834 14.157">
  <path id="Gold_Star" data-name="Gold Star" d="M276.45,285.426a.5.5,0,0,1,.932,0l1.637,4.234a.354.354,0,0,0,.31.225l4.532.248a.5.5,0,0,1,.288.886l-3.521,2.865a.352.352,0,0,0-.118.365l1.164,4.387a.5.5,0,0,1-.754.547l-3.813-2.463a.353.353,0,0,0-.383,0l-3.813,2.463a.5.5,0,0,1-.754-.547l1.164-4.387a.353.353,0,0,0-.119-.365l-3.521-2.865a.5.5,0,0,1,.288-.886l4.532-.248a.354.354,0,0,0,.31-.225l1.637-4.234Z" transform="translate(-269.499 -285.107)" fill="#b0916d" fill-rule="evenodd"/>
</svg>
