<svg xmlns="http://www.w3.org/2000/svg" width="433.217" height="34.171" viewBox="0 0 433.217 34.171">
  <g id="Happy_Customers_1000_5_Star_Reviews" data-name="Happy Customers, 1000+ 5 Star Reviews" transform="translate(-1127.63 -983.131)">
    <text id="Happy_Customers_1000_5_Star_Reviews-2" data-name="Happy Customers, 1000+ 5 Star Reviews" transform="translate(1366.848 1006)" font-size="18" font-family="Poppins-SemiBold, Poppins" font-weight="600" letter-spacing="0.005em"><tspan x="-193" y="0">HAPPY CUSTOMERS, 1000+ 5 STAR REVIEWS</tspan></text>
    <path id="noun-smile-4352168" d="M92.085,109.171a17.086,17.086,0,1,1,8.543-2.289,17.085,17.085,0,0,1-8.543,2.289Zm0-31.73a14.644,14.644,0,1,0,10.355,4.289A14.645,14.645,0,0,0,92.085,77.441Zm6.358,19.526a1.23,1.23,0,1,0-2.136-1.22,4.882,4.882,0,0,1-8.445,0,1.23,1.23,0,1,0-2.136,1.22,7.322,7.322,0,0,0,12.716,0ZM97.37,85.642a.947.947,0,1,0,0-.061Zm-10.568,0a.946.946,0,1,0,0-.061Z" transform="translate(1052.63 908.131)"/>
  </g>
</svg>
