<svg id="instagram_icon" xmlns="http://www.w3.org/2000/svg" width="17.284" height="17.284" viewBox="0 0 17.284 17.284">
  <path id="Path_643" data-name="Path 643" d="M19.86,16.7a4.46,4.46,0,1,0,4.46,4.46A4.469,4.469,0,0,0,19.86,16.7Zm0,7.318a2.857,2.857,0,1,1,2.857-2.857A2.87,2.87,0,0,1,19.86,24.018Z" transform="translate(-11.218 -12.553)"/>
  <ellipse id="Ellipse_1" data-name="Ellipse 1" cx="1.011" cy="1.011" rx="1.011" ry="1.011" transform="translate(12.266 3.032)"/>
  <path id="Path_644" data-name="Path 644" d="M19.29,6.229A4.963,4.963,0,0,0,15.631,4.8H8.453A4.774,4.774,0,0,0,3.4,9.853V17a5.014,5.014,0,0,0,1.464,3.729,5.085,5.085,0,0,0,3.624,1.359H15.6a5.145,5.145,0,0,0,3.659-1.359,4.989,4.989,0,0,0,1.429-3.694V9.853A5,5,0,0,0,19.29,6.229Zm-.139,10.8a3.4,3.4,0,0,1-1.011,2.544,3.6,3.6,0,0,1-2.544.906H8.488a3.6,3.6,0,0,1-2.544-.906A3.5,3.5,0,0,1,5,17V9.853a3.474,3.474,0,0,1,.941-2.544A3.544,3.544,0,0,1,8.488,6.4h7.178a3.474,3.474,0,0,1,2.544.941,3.6,3.6,0,0,1,.941,2.509v7.178Z" transform="translate(-3.4 -4.8)"/>
</svg>
