<svg xmlns="http://www.w3.org/2000/svg" width="17.284" height="17.284" viewBox="0 0 17.284 17.284">
  <path id="pinterest" d="M8.642,0A8.643,8.643,0,0,0,5.493,16.693a8.3,8.3,0,0,1,.03-2.482c.157-.674,1.013-4.3,1.013-4.3a3.119,3.119,0,0,1-.259-1.283c0-1.2.7-2.1,1.564-2.1A1.086,1.086,0,0,1,8.935,7.751a17.4,17.4,0,0,1-.716,2.877A1.255,1.255,0,0,0,9.5,12.19c1.536,0,2.717-1.62,2.717-3.957a3.411,3.411,0,0,0-3.61-3.516,3.741,3.741,0,0,0-3.9,3.75,3.361,3.361,0,0,0,.643,1.972.259.259,0,0,1,.06.248c-.066.273-.211.86-.24.98-.038.158-.125.192-.289.116A3.874,3.874,0,0,1,3.123,8.435c0-2.726,1.981-5.23,5.71-5.23A5.071,5.071,0,0,1,14.161,8.2c0,2.978-1.878,5.375-4.484,5.375A2.313,2.313,0,0,1,7.7,12.579s-.433,1.65-.538,2.054A9.659,9.659,0,0,1,6.083,16.9,8.643,8.643,0,1,0,8.642,0Z" transform="translate(0 -0.001)"/>
</svg>
