<svg xmlns="http://www.w3.org/2000/svg" width="422.71" height="28.502" viewBox="0 0 422.71 28.502">
  <g id="Same_Day_Despatch_order_before_2pm" data-name="Same Day Despatch, order before 2pm" transform="translate(-742.29 -3024)">
    <text id="Same_Day_Despatch_order_before_2pm-2" data-name="Same Day Despatch, order before 2pm" transform="translate(978 3043)" font-size="18" font-family="Poppins-SemiBold, Poppins" font-weight="600" letter-spacing="0.005em"><tspan x="-186" y="0">SAME DAY DESPATCH, ORDER BEFORE 2PM</tspan></text>
    <g id="noun-truck-4046671" transform="translate(724.106 2856.05)">
      <path id="Path_1114" data-name="Path 1114" d="M19.271,186.42H39.135a1.088,1.088,0,0,0,1.087-1.087V170.07a1.087,1.087,0,0,0-1.087-1.088H19.271a1.086,1.086,0,0,0-1.087,1.088v15.263a1.088,1.088,0,0,0,1.087,1.087Z"/>
      <path id="Path_1115" data-name="Path 1115" d="M137.533,779.13a4.014,4.014,0,1,0,4.014,4.014A4.013,4.013,0,0,0,137.533,779.13Zm0,5.561a1.547,1.547,0,1,1,1.547-1.547A1.546,1.546,0,0,1,137.533,784.691Z" transform="translate(-111.661 -590.705)"/>
      <path id="Path_1116" data-name="Path 1116" d="M24.829,750.357H19.273a1.088,1.088,0,0,0-1.088,1.088v1.645a1.089,1.089,0,0,0,1.088,1.088H20.96a5.053,5.053,0,0,1,3.869-3.822Z" transform="translate(-0.001 -562.849)"/>
      <path id="Path_1117" data-name="Path 1117" d="M319.535,294.942h-.408v-7.753a3.926,3.926,0,0,0-.641-1.968l-3.2-4.389a2.413,2.413,0,0,0-1.729-.88h-5.8a1.091,1.091,0,0,0-1.087,1.087v13.9H292.277a5.053,5.053,0,0,1,3.869,3.823h11.839a5.036,5.036,0,0,1,9.827,0h1.723a1.09,1.09,0,0,0,1.088-1.088v-1.645a1.089,1.089,0,0,0-1.088-1.089Zm-2.681-5.855h-7.911v-6.552h4.523a.863.863,0,0,1,.36.188l2.745,3.768a2.057,2.057,0,0,1,.283.867Z" transform="translate(-265.359 -107.434)"/>
      <path id="Path_1118" data-name="Path 1118" d="M817.474,779.13a4.014,4.014,0,1,0,4.013,4.014A4.014,4.014,0,0,0,817.474,779.13Zm0,5.561a1.547,1.547,0,1,1,1.546-1.547A1.547,1.547,0,0,1,817.474,784.691Z" transform="translate(-769.934 -590.705)"/>
    </g>
  </g>
</svg>
