<svg xmlns="http://www.w3.org/2000/svg" width="381.961" height="37.816" viewBox="0 0 381.961 37.816">
  <g id="Size_inclusive_Stocking_sizes_6-26" data-name="Size inclusive Stocking sizes 6-26" transform="translate(-384.646 -980.738)">
    <text id="Size_inclusive_Stocking_sizes_6-26-2" data-name="Size inclusive Stocking sizes 6-26" transform="translate(600.607 1007.716)" font-size="18" font-family="Poppins-SemiBold, Poppins" font-weight="600" letter-spacing="0.005em"><tspan x="-165" y="0">SIZE INCLUSIVE STOCKING SIZES 6-26</tspan></text>
    <g id="noun-tag-320981" transform="translate(384.99 980.992)">
      <path id="Path_1110" data-name="Path 1110" d="M28.457.008,18.61,1.1.01,19.7,17.516,37.209l18.6-18.6,1.093-9.847ZM34.636,17.9,17.516,35.018,2.2,19.7l17.12-17.12,8.567-.952,7.7,7.7Z" stroke="#000" stroke-width="0.5"/>
      <path id="Path_1111" data-name="Path 1111" d="M843.09,209.523a2.325,2.325,0,1,0,2.325-2.316A2.321,2.321,0,0,0,843.09,209.523Zm2.325-.767a.767.767,0,1,1-.775.767A.773.773,0,0,1,845.415,208.757Z" transform="translate(-816.944 -200.776)" stroke="#000" stroke-width="0.5"/>
      <path id="Path_1112" data-name="Path 1112" d="M412.176,383.926h-.042a4.069,4.069,0,0,0-6.946-2.919c-3.288,3.288-1.233,11.1-1.233,11.1a22.625,22.625,0,0,0,5.117.635c2.165,0,4.52-.405,5.981-1.868a4.068,4.068,0,0,0-2.877-6.945Zm1.781,5.85c-1.168,1.168-3.3,1.413-4.885,1.413a21.057,21.057,0,0,1-3.816-.386,21.553,21.553,0,0,1-.369-3.082,12.527,12.527,0,0,1,.233-3.251,4.762,4.762,0,0,1,1.165-2.367,2.519,2.519,0,0,1,4.3,1.807l-.017,1.582,1.583-.016h.026a2.519,2.519,0,0,1,1.781,4.3Z" transform="translate(-390.808 -368.033)" stroke="#000" stroke-width="0.5"/>
    </g>
  </g>
</svg>
