<svg xmlns="http://www.w3.org/2000/svg" width="252.392" height="29.535" viewBox="0 0 252.392 29.535">
  <g id="Wear_now_Pay_later" data-name="Wear now, Pay later" transform="translate(-1218 -3024)">
    <text id="Wear_now_Pay_later-2" data-name="Wear now, Pay later" transform="translate(1367.392 3043)" font-size="18" font-family="Poppins-SemiBold, Poppins" font-weight="600" letter-spacing="0.005em"><tspan x="-102" y="0">WEAR NOW, PAY LATER</tspan></text>
    <path id="Path_1113" data-name="Path 1113" d="M1291.64,314.823l-4.618-2.649-4.684-2.687a4.656,4.656,0,0,0-6.973,4.039v.6a.921.921,0,0,0,.463.8l2.172,1.247a.9.9,0,0,0,1.354-.784v-1.428a.921.921,0,0,1,1.379-.8l4.28,2.456,4.267,2.448a.92.92,0,0,1,0,1.6l-4.267,2.448-4.28,2.456a.921.921,0,0,1-1.379-.8v-.71a4.656,4.656,0,0,0-6.973-4.039l-4.683,2.687-4.618,2.65a4.657,4.657,0,0,0,0,8.078l4.618,2.649,4.683,2.687a4.656,4.656,0,0,0,6.973-4.039v-.6a.92.92,0,0,0-.462-.8l-2.173-1.247a.9.9,0,0,0-1.354.784v1.43a.92.92,0,0,1-1.378.8l-4.28-2.456-4.268-2.448a.92.92,0,0,1,0-1.6l4.268-2.448,4.28-2.456a.92.92,0,0,1,1.378.8v.71a4.656,4.656,0,0,0,6.973,4.039l4.684-2.687,4.618-2.649A4.656,4.656,0,0,0,1291.64,314.823Z" transform="translate(-42.741 2715.138)"/>
  </g>
</svg>
