<svg xmlns="http://www.w3.org/2000/svg" width="29.678" height="10.885" viewBox="0 0 29.678 10.885">
  <g id="Zip_Pay_" data-name="Zip Pay " transform="translate(-0.111 -0.259)">
    <path id="Path_1097" data-name="Path 1097" d="M3.018,92.8l.259,2.111h9.07l-.3-2.417H7.821l-.037-.3,3.895-2.722-.26-2.114H2.35l.3,2.417H6.883l.037.3Z" transform="translate(-2.239 -83.77)"/>
    <path id="Path_1098" data-name="Path 1098" d="M262.59,87.36l.928,7.553h9.076l-.928-7.553Z" transform="translate(-252.357 -83.77)"/>
    <path id="Path_1099" data-name="Path 1099" d="M532.393,90.078a3.1,3.1,0,0,0-3.355-2.719H523l.927,7.553h2.716l-.186-1.511h2.874C531.594,93.4,532.629,91.992,532.393,90.078Zm-3.355,1.206-2.84,0-.222-1.813,2.856,0a.976.976,0,0,1,1.07.9.792.792,0,0,1-.864.9Z" transform="translate(-502.637 -83.769)"/>
    <path id="Path_1100" data-name="Path 1100" d="M272.706,4.034a1.36,1.36,0,0,0-.186-1.907,1.36,1.36,0,0,0-1.916-.05,1.36,1.36,0,0,0,.186,1.907A1.36,1.36,0,0,0,272.706,4.034Z" transform="translate(-259.761 -1.447)"/>
  </g>
</svg>
