<svg xmlns="http://www.w3.org/2000/svg" width="40.83" height="14.975" viewBox="0 0 40.83 14.975">
  <g id="Zip_Pay_" data-name="Zip Pay " transform="translate(-0.111 -0.259)">
    <path id="Path_1097" data-name="Path 1097" d="M3.269,94.847l.356,2.9H16.1L15.7,94.426H9.877l-.051-.412,5.358-3.744-.358-2.909H2.35l.408,3.325H8.586l.051.416Z" transform="translate(-2.239 -82.518)"/>
    <path id="Path_1098" data-name="Path 1098" d="M262.59,87.36l1.276,10.391h12.487L275.077,87.36Z" transform="translate(-248.553 -82.518)"/>
    <path id="Path_1099" data-name="Path 1099" d="M535.922,91.1c-.288-2.335-2.122-3.751-4.616-3.741H523l1.276,10.391h3.737l-.256-2.078h3.954C534.823,95.672,536.247,93.733,535.922,91.1Zm-4.615,1.659-3.907,0-.306-2.494,3.929,0a1.343,1.343,0,0,1,1.473,1.243,1.089,1.089,0,0,1-1.189,1.243Z" transform="translate(-495.027 -82.517)"/>
    <path id="Path_1100" data-name="Path 1100" d="M273.612,4.909a1.872,1.872,0,0,0-.256-2.624,1.872,1.872,0,0,0-2.636-.069,1.872,1.872,0,0,0,.256,2.624A1.872,1.872,0,0,0,273.612,4.909Z" transform="translate(-255.844 -1.447)"/>
  </g>
</svg>
