<svg width="22" height="22" viewBox="0 0 22 22" fill="none" xmlns="http://www.w3.org/2000/svg">
<path fill-rule="evenodd" clip-rule="evenodd" d="M7 6C7 3.7908 8.79086 2 11 2C13.209 2 15 3.79086 15 6C15 8.20914 13.2091 10 11 10C8.7908 10 7 8.20914 7 6ZM13.501 10.3304C14.9949 9.46572 16 7.8502 16 6C16 3.2386 13.7614 1 11 1C8.2386 1 6 3.2386 6 6C6 7.85024 7.005 9.4658 8.499 10.3304C4.1734 11.4984 1 15.6254 1 20.5C1 20.7761 1.22382 21 1.5 21C1.77618 21 2 20.7761 2 20.5C2 15.2288 6.0532 11 11 11C15.9468 11 20 15.2288 20 20.5C20 20.7761 20.2239 21 20.5 21C20.7761 21 21 20.7761 21 20.5C21 15.6254 17.8268 11.4986 13.501 10.3304Z" fill="#454049" stroke="#454049" stroke-width="0.5"/>
</svg>
